<?xml version="1.0" encoding="UTF-8"?>
<svg id="Layer_1" data-name="Layer 1" xmlns="http://www.w3.org/2000/svg" viewBox="0 0 746.67 258">
  <defs>
    <style>
      .cls-1, .cls-2 {
        letter-spacing: -.03em;
      }

      .cls-3, .cls-4 {
        isolation: isolate;
      }

      .cls-5 {
        letter-spacing: -.09em;
      }

      .cls-6 {
        letter-spacing: -.09em;
      }

      .cls-7, .cls-8, .cls-9, .cls-10, .cls-11 {
        fill: none;
      }

      .cls-7, .cls-9, .cls-10, .cls-11 {
        stroke: #fff;
      }

      .cls-7, .cls-11 {
        stroke-miterlimit: 133.33;
      }

      .cls-8, .cls-12, .cls-13, .cls-14 {
        stroke-width: 0px;
      }

      .cls-15 {
        letter-spacing: -.06em;
      }

      .cls-16 {
        font-size: 9px;
        letter-spacing: -.03em;
      }

      .cls-16, .cls-2, .cls-4, .cls-14, .cls-17 {
        fill: #fff;
      }

      .cls-16, .cls-2, .cls-4, .cls-17 {
        font-weight: 700;
      }

      .cls-16, .cls-2, .cls-17 {
        font-family: Inter-Bold, Inter;
        font-variation-settings: 'wght' 700, 'slnt' 0;
      }

      .cls-12 {
        fill: #ff3939;
      }

      .cls-9 {
        stroke-linejoin: round;
      }

      .cls-9, .cls-11 {
        stroke-linecap: round;
      }

      .cls-10 {
        stroke-miterlimit: 10;
      }

      .cls-2, .cls-17 {
        font-size: 14px;
      }

      .cls-18 {
        letter-spacing: -.06em;
      }

      .cls-4 {
        font-family: Poppins-Bold, Poppins;
        font-size: 13.11px;
      }

      .cls-13 {
        fill: #ff3939;
      }

      .cls-19 {
        letter-spacing: -.05em;
      }

      .cls-20 {
        letter-spacing: -.05em;
      }

      .cls-21 {
        letter-spacing: -.06em;
      }

      .cls-22 {
        letter-spacing: -.03em;
      }

      .cls-23 {
        letter-spacing: -.11em;
      }
    </style>
  </defs>
  <path class="cls-9" d="M73.66,131.53h9.72M73.66,125.06h9.72M73.66,118.58h1.62M80.14,108.86h-7.77c-1.81,0-2.72,0-3.41.35-.61.31-1.1.81-1.42,1.42-.35.69-.35,1.6-.35,3.41v18.78c0,1.81,0,2.72.35,3.41.31.61.81,1.1,1.42,1.42.69.35,1.6.35,3.41.35h12.31c1.81,0,2.72,0,3.41-.35.61-.31,1.1-.81,1.42-1.42.35-.69.35-1.6.35-3.41v-14.25M80.14,108.86l9.72,9.72M80.14,108.86v7.12c0,.91,0,1.36.18,1.71.16.3.4.55.71.71.35.18.8.18,1.71.18h7.12"/>
  <g>
    <path class="cls-11" d="M66.75,176.18v-16.65"/>
    <path class="cls-11" d="M88.95,159.52v16.65"/>
    <path class="cls-7" d="M77.85,165.07c6.13,0,11.1-2.49,11.1-5.55s-4.97-5.55-11.1-5.55-11.1,2.49-11.1,5.55,4.97,5.55,11.1,5.55Z"/>
    <path class="cls-7" d="M88.95,167.85c0,3.07-4.97,5.55-11.1,5.55s-11.1-2.49-11.1-5.55"/>
    <path class="cls-7" d="M88.95,176.18c0,3.07-4.97,5.55-11.1,5.55s-11.1-2.49-11.1-5.55"/>
  </g>
  <g>
    <path class="cls-14" d="M68.59,203.53l1.02-3.94h.09l1.01,3.94h-2.12ZM71.7,207.41h2.07l-2.92-9.72h-2.26l-2.92,9.72h1.91l.62-2.38h2.89l.61,2.38Z"/>
    <path class="cls-14" d="M74.99,197.69v9.72h1.91v-3.08h1.55c2.09,0,3.43-1.29,3.43-3.31s-1.29-3.33-3.33-3.33h-3.55ZM76.9,199.26h1.16c1.25,0,1.88.58,1.88,1.74s-.63,1.74-1.88,1.74h-1.16v-3.49Z"/>
    <path class="cls-14" d="M89.74,207.41v-1.64h-2.01v-6.43h2.01v-1.64h-5.94v1.64h2.01v6.43h-2.01v1.64h5.94Z"/>
  </g>
  <path class="cls-14" d="M671.9,112.08h5.79v18.8h-5.79v-18.8ZM669.01,117.87h-5.79v13.02h5.79v-13.02ZM687.81,133.78h-26.03v1.59h26.03v-1.59ZM686.37,120.76h-5.79v10.12h5.79v-10.12Z"/>
  <g id="Layer_2" data-name="Layer 2">
    <g id="Q3_icons" data-name="Q3 icons">
      <path class="cls-14" d="M678.7,166.01c.53,0,.96-.43.96-.96v-1.45h.72c.4,0,.72-.32.72-.72s-.32-.72-.72-.72h-.72v-.96h.72c.4,0,.72-.32.72-.72s-.32-.72-.72-.72h-.72v-1.45c0-.53-.43-.96-.96-.96h-1.45v-.72c0-.4-.32-.72-.72-.72s-.72.32-.72.72v.72h-.96v-.72c0-.4-.32-.72-.72-.72s-.72.32-.72.72v.72h-1.45c-.53,0-.96.43-.96.96v1.45h-.72c-.4,0-.72.32-.72.72s.32.72.72.72h.72v.96h-.72c-.4,0-.72.32-.72.72s.32.72.72.72h.72v1.45c0,.53.43.96.96.96h1.45v.72c0,.4.32.72.72.72s.72-.32.72-.72v-.72h.96v.72c0,.4.32.72.72.72s.72-.32.72-.72v-.72h1.45ZM672.43,158.79h5.78v5.78h-5.78v-5.78Z"/>
      <rect class="cls-14" x="673.88" y="160.23" width="2.89" height="2.89"/>
      <g>
        <path class="cls-14" d="M685.73,159.12l-2.22-1.83v-3.57c0-.19-.12-.36-.29-.43l-4.77-2.17h-.19l-.29.1-.24.14v2.89c0,.4.32.72.72.72s.72-.32.72-.72v-.67l2.41,1.11v3.57l.72.58,1.69,1.35v2.99l-1.69,1.35-.72.58v3.57l-2.41,1.11v-.63c0-.4-.32-.72-.72-.72s-.72.32-.72.72v2.89l.24.14.29.1h.19l4.77-2.17c.17-.08.29-.24.29-.43v-3.61l2.22-1.83c.13-.09.2-.23.19-.39v-4.34c.02-.16-.06-.31-.19-.39Z"/>
        <path class="cls-14" d="M672.38,151.08h-.19l-4.77,2.22c-.17.08-.29.24-.29.43v3.57l-2.22,1.83c-.14.08-.21.23-.19.39v4.34c0,.15.06.3.19.39l2.22,1.83v3.57c0,.19.12.36.29.43l4.77,2.17h.19l.29-.1.24-.14v-2.89c0-.4-.32-.72-.72-.72s-.72.32-.72.72v.63l-2.41-1.11v-3.52l-.72-.58-1.69-1.35v-2.99l1.69-1.35.72-.58v-3.57l2.41-1.11v.63c0,.4.32.72.72.72s.72-.32.72-.72v-2.89l-.24-.14-.29-.1Z"/>
      </g>
    </g>
  </g>
  <g>
    <path class="cls-14" d="M670.49,188.28v2.2h1.12v3.25l-5.46,10.91,1.68,2.84h14.73l1.7-2.84h-.03l-5.46-10.91v-3.25h1.08v-2.2h-9.35ZM673.84,190.48h2.72v3.21h-.02l1.43,2.84h-3.63l-4.38,8.75h-1.25l-.36-.62,5.46-10.93h.03v-3.25h0Z"/>
    <path class="cls-8" d="M673.85,190.48v3.25h-.04l-5.46,10.93.36.62h1.26l4.38-8.75h3.62l-1.43-2.83h.02v-3.22h-2.71Z"/>
  </g>
  <g>
    <path class="cls-14" d="M332.53,40.78c2.65-2.59,3.99-5.82,3.99-9.59v-.11c0-3.82-1.37-7.1-4.04-9.69s-5.98-3.91-9.83-3.91h-9.72v27.2h9.72c3.91,0,7.24-1.31,9.89-3.91h0ZM317.87,40.04v-17.97h4.78c2.62,0,4.81.85,6.5,2.51,1.67,1.67,2.51,3.85,2.51,6.47s-.85,4.72-2.51,6.42-3.85,2.57-6.53,2.57h-4.78.03Z"/>
    <path class="cls-14" d="M360.22,44.63v-20.65h-4.78v2.38c-1.61-1.8-3.71-2.73-6.31-2.73s-5.3,1.04-7.29,3.11h0c-1.99,2.08-3,4.62-3,7.54s1.01,5.41,3,7.48,4.45,3.14,7.26,3.14,4.7-.9,6.31-2.68v2.38h4.81v.03ZM355.75,34.31c0,1.69-.63,3.2-1.83,4.42-1.23,1.23-2.7,1.86-4.4,1.86s-3.2-.63-4.4-1.83-1.8-2.7-1.8-4.42.6-3.22,1.8-4.45,2.68-1.86,4.4-1.86,3.17.63,4.4,1.88,1.83,2.73,1.83,4.42h0v-.03Z"/>
    <path class="cls-14" d="M366.94,37.88c0,2.95.82,4.89,2.43,5.79,1.58.9,3.14,1.34,4.67,1.34s2.46-.19,3.82-.57h.14v-4.7l-.25.08c-1.28.41-2.38.6-3.28.6s-1.2-.16-1.88-.44c-.66-.27-.98-.98-.98-2.16v-9.67h6.23v-4.21h-6.23v-6.17l-4.7,1.37v4.81h-3.82v4.21h3.82v9.72h.03Z"/>
    <path class="cls-14" d="M389.96,44.93c2.59,0,4.7-.9,6.31-2.68v2.38h4.78v-20.65h-4.78v2.38c-1.61-1.8-3.71-2.73-6.31-2.73s-5.3,1.04-7.29,3.11h0c-1.99,2.08-3,4.62-3,7.54s1.01,5.41,3,7.48,4.45,3.14,7.26,3.14h.03v.03ZM384.15,34.31c0-1.72.6-3.22,1.8-4.45s2.68-1.86,4.4-1.86,3.17.63,4.4,1.88c1.23,1.26,1.83,2.73,1.83,4.42s-.63,3.2-1.83,4.42c-1.23,1.23-2.7,1.86-4.4,1.86s-3.2-.63-4.4-1.83-1.8-2.7-1.8-4.42h0v-.03Z"/>
    <polygon class="cls-14" points="405.83 44.93 410.72 44.93 410.72 33.6 423.99 33.6 423.99 29.12 410.72 29.12 410.72 22.4 425.52 22.4 425.52 17.81 405.83 17.81 405.83 44.93"/>
    <path class="cls-14" d="M436.91,23.96c-2.92,0-5.43,1.04-7.51,3.11s-3.11,4.59-3.11,7.51,1.04,5.46,3.11,7.54c2.08,2.08,4.59,3.14,7.51,3.14s5.41-1.07,7.48-3.14c2.08-2.08,3.11-4.62,3.11-7.54s-1.04-5.41-3.09-7.48-4.59-3.14-7.48-3.14h-.03ZM442.97,34.58c0,1.69-.6,3.2-1.78,4.42s-2.62,1.86-4.29,1.86-3.14-.63-4.34-1.86c-1.17-1.23-1.78-2.7-1.78-4.42s.6-3.17,1.78-4.4,2.65-1.83,4.34-1.83,3.14.63,4.31,1.83c1.17,1.23,1.78,2.7,1.78,4.4h-.03Z"/>
    <path class="cls-14" d="M460.72,24.07c-1.2,0-2.38.27-3.5.85-.96.46-1.72,1.2-2.35,2.18v-2.79h-4.78v20.65h4.78v-10.46c0-2.08.6-3.52,1.83-4.31,1.23-.82,2.43-1.23,3.52-1.23s1.42.14,2.18.38l.25.08v-5.13h-.16c-.63-.14-1.23-.19-1.78-.19h0v-.03Z"/>
    <path class="cls-14" d="M480.33,26.66c-1.61-1.78-3.71-2.68-6.31-2.7h-.22c-2.79,0-5.19.98-7.13,2.95-1.94,1.97-2.92,4.45-2.92,7.43s.98,5.41,2.92,7.37c1.94,1.97,4.42,2.98,7.37,2.98s4.72-.85,6.31-2.51v1.15c0,1.99-.55,3.52-1.56,4.48s-2.32,1.47-3.91,1.47-2.27-.27-3.28-.85c-1.01-.55-1.72-1.42-2.16-2.59l-.05-.14h-4.78l.05.25c.6,2.54,1.86,4.48,3.8,5.82,1.91,1.31,4.07,1.99,6.44,1.99s5.3-.96,7.26-2.81c1.97-1.86,2.95-4.45,2.95-7.7v-18.93h-4.78v2.35h-.03ZM478.8,30.05c1.2,1.17,1.83,2.62,1.83,4.29s-.63,3.11-1.83,4.29c-1.23,1.17-2.7,1.75-4.4,1.75s-3.17-.57-4.37-1.75c-1.2-1.15-1.8-2.59-1.8-4.29s.6-3.14,1.8-4.29c1.2-1.15,2.68-1.75,4.4-1.75s3.22.6,4.42,1.75h-.05Z"/>
    <path class="cls-14" d="M509.14,32.75c-.44-2.51-1.64-4.62-3.55-6.28s-4.21-2.51-6.8-2.51-5.41,1.04-7.48,3.11c-2.08,2.08-3.11,4.62-3.11,7.56s1.04,5.43,3.06,7.51,4.56,3.11,7.54,3.11,3.88-.49,5.68-1.5c1.83-.98,3.17-2.35,3.99-3.99l.11-.22-4.23-1.12-.08.08c-1.37,1.64-3.2,2.46-5.46,2.46s-2.79-.44-3.88-1.31c-1.04-.82-1.69-1.91-1.97-3.25h16.19v-.14c.16-.55.22-1.09.22-1.64s-.08-1.26-.22-1.86h0v-.03ZM494.89,29.58c1.07-.9,2.35-1.34,3.85-1.34s2.79.46,3.82,1.34c.98.85,1.61,1.88,1.88,3.09h-11.52c.3-1.2.96-2.24,1.94-3.09h.03Z"/>
  </g>
  <path class="cls-13" d="M290.48,33.65c-.08.41-.19.66-.3.66h-1.15c-.22.41-.46,1.17-.46,2.7h.96v3.5c0,.33-2.1.6-4.7.6s-4.7-.27-4.7-.6v-3.5h.96c0-1.53-.22-2.29-.46-2.7h-1.15c-.25,0-.46-1.28-.46-2.84s.22-2.84.46-2.84h.98c.27-.33.6-1.07.6-2.92h-.93v-3.5c0-.33,2.1-.6,4.7-.6s4.7.27,4.7.6v3.5h-.96c0,1.83.33,2.59.6,2.92h.98c.11,0,.19.22.27.55h15.13c-11.63-3.88-20.02-14.88-20.02-27.83h-1.39c0,16.22-13.14,29.36-29.36,29.36v1.34c16.22,0,29.36,13.14,29.36,29.36h1.39c0-12.84,8.25-23.76,19.74-27.75h-14.8Z"/>
  <g class="cls-3">
    <text class="cls-4" transform="translate(312.57 57.66)"><tspan x="0" y="0">CORE</tspan></text>
  </g>
  <path class="cls-10" d="M125.11,158.5l-.03,44.13c0,16.57-13.43,30-30,30h-34c-16.57,0-30-13.43-30-30v-86.96c0-16.57,13.43-30,30-30h34c16.57,0,30,13.43,30,30v28.58"/>
  <rect class="cls-10" x="212.19" y="113.29" width="130" height="73.33" rx="17.33" ry="17.33"/>
  <rect class="cls-10" x="413.52" y="113.29" width="130" height="73.33" rx="17.33" ry="17.33"/>
  <path class="cls-10" d="M577.52,158.64v43.99c0,16.57-13.43,30-30,30H206.86c-16.57,0-30-13.43-30-30v-43.99"/>
  <path class="cls-10" d="M176.86,143.97v-28.31c0-16.57,13.43-30,30-30h340.67c16.57,0,30,13.43,30,30v28.64"/>
  <path class="cls-10" d="M626.52,144.31v-28.64c0-16.57,13.43-30,30-30h34c16.57,0,30,13.43,30,30v86.96c0,16.57-13.43,30-30,30h-34c-16.57,0-30-13.43-30-30v-43.99"/>
  <text class="cls-2" transform="translate(264.05 146.62)"><tspan x="0" y="0">Raw</tspan><tspan x="-1.1" y="16.8">Data</tspan></text>
  <text class="cls-17" transform="translate(437.05 146.62)"><tspan class="cls-5" x="0" y="0">T</tspan><tspan class="cls-20" x="8.1" y="0">r</tspan><tspan class="cls-1" x="13.15" y="0">ans</tspan><tspan class="cls-19" x="36.45" y="0">f</tspan><tspan class="cls-1" x="41.12" y="0">ormed</tspan><tspan class="cls-1"><tspan x="26.57" y="16.8">Data</tspan></tspan></text>
  <text class="cls-17" transform="translate(284.49 215.96)"><tspan class="cls-1" x="0" y="0">Data </tspan><tspan class="cls-6" x="32.8" y="0">W</tspan><tspan class="cls-1" x="46.02" y="0">a</tspan><tspan class="cls-18" x="53.68" y="0">r</tspan><tspan class="cls-1" x="58.58" y="0">ehouse / La</tspan><tspan class="cls-15" x="132.16" y="0">k</tspan><tspan class="cls-22" x="139.52" y="0">ehouse</tspan></text>
  <text class="cls-17" transform="translate(38.2 69.92)"><tspan class="cls-1" x="0" y="0">Sou</tspan><tspan class="cls-21" x="25.08" y="0">r</tspan><tspan class="cls-1" x="29.98" y="0">ce Data</tspan></text>
  <text class="cls-17" transform="translate(640.27 72.43)"><tspan class="cls-1" x="0" y="0">BI / AI </tspan><tspan class="cls-23" x="39.08" y="0">T</tspan><tspan class="cls-1" x="46.86" y="0">ools</tspan></text>
  <path class="cls-12" d="M363.84,124.5c-9.39-12.2-11.99-26.04-10.23-40.89.73-6.15,2.37-10.62,5.25-15,.25.3.43.56.65.76,1.18,1.07,2.12,1.02,2.42-.36.44-2.05.54-4.18.71-6.28.03-.35-.2-.93-.47-1.06-1.07-.49-2.19-1.12-3.31-1.16-1.56-.05-3.43-.67-4.93,1.5,1.45.7,2.73,1.33,4.19,2.04-.14.24-.31.67-.6.99-2.33,2.61-3.99,5.62-4.97,8.94-4.7,15.91-3.06,31.14,5.3,45.53.9,1.55,2.16,2.91,3.36,4.27.48.54,1.23.84,1.86,1.25.26-.17.53-.35.79-.52Z"/>
  <path class="cls-12" d="M378.61,60.91c9.39,12.2,11.99,26.04,10.23,40.89-.73,6.15-2.37,10.62-5.25,15-.25-.3-.43-.56-.65-.76-1.18-1.07-2.12-1.02-2.42.36-.44,2.05-.54,4.18-.71,6.28-.03.35.2.93.47,1.06,1.07.49,2.19,1.12,3.31,1.16,1.56.05,3.43.67,4.93-1.5-1.45-.7-2.73-1.33-4.19-2.04.14-.24.31-.67.6-.99,2.33-2.61,3.99-5.62,4.97-8.94,4.7-15.91,3.06-31.14-5.3-45.53-.9-1.55-2.16-2.91-3.36-4.27-.48-.54-1.23-.84-1.86-1.25-.26.17-.53.35-.79.52Z"/>
  <path class="cls-10" d="M185.3,144.12h-86.33v14.44h86.33l-.22,13.83,22.72-21.41-22.48-21.27s-.01,9.6-.02,14.4Z"/>
  <path class="cls-10" d="M384.94,144.12h-35.83v14.44h35.83l-.22,13.83,22.72-21.41-22.48-21.27s-.01,9.6-.02,14.4Z"/>
  <path class="cls-10" d="M634.97,144.12h-82.33v14.44h82.33l-.22,13.83,22.72-21.41-22.48-21.27s-.01,9.6-.02,14.4Z"/>
  <text class="cls-16" transform="translate(130.19 154.14)"><tspan x="0" y="0">Ingestion</tspan></text>
  <text class="cls-16" transform="translate(580.43 154.37)"><tspan x="0" y="0">Publishing</tspan></text>
</svg>