<?xml version="1.0" encoding="UTF-8"?>
<svg id="Layer_1" data-name="Layer 1" xmlns="http://www.w3.org/2000/svg" viewBox="0 0 746.67 258">
  <defs>
    <style>
      .cls-1 {
        isolation: isolate;
      }

      .cls-2, .cls-3, .cls-4, .cls-5, .cls-6 {
        fill: none;
      }

      .cls-2, .cls-4, .cls-5, .cls-6 {
        stroke: #fff;
      }

      .cls-2, .cls-6 {
        stroke-miterlimit: 133.33;
      }

      .cls-3, .cls-7, .cls-8, .cls-9 {
        stroke-width: 0px;
      }

      .cls-7 {
        fill: #ff3939;
      }

      .cls-4 {
        stroke-linejoin: round;
      }

      .cls-4, .cls-6 {
        stroke-linecap: round;
      }

      .cls-5 {
        stroke-miterlimit: 10;
      }

      .cls-8 {
        fill: #ff3939;
      }

      .cls-9 {
        fill: #fff;
      }
    </style>
  </defs>
  <path class="cls-4" d="M73.66,131.53h9.72M73.66,125.06h9.72M73.66,118.58h1.62M80.14,108.86h-7.77c-1.81,0-2.72,0-3.41.35-.61.31-1.1.81-1.42,1.42-.35.69-.35,1.6-.35,3.41v18.78c0,1.81,0,2.72.35,3.41.31.61.81,1.1,1.42,1.42.69.35,1.6.35,3.41.35h12.31c1.81,0,2.72,0,3.41-.35.61-.31,1.1-.81,1.42-1.42.35-.69.35-1.6.35-3.41v-14.25M80.14,108.86l9.72,9.72M80.14,108.86v7.12c0,.91,0,1.36.18,1.71.16.3.4.55.71.71.35.18.8.18,1.71.18h7.12"/>
  <g>
    <path class="cls-6" d="M66.75,176.18v-16.65"/>
    <path class="cls-6" d="M88.95,159.52v16.65"/>
    <path class="cls-2" d="M77.85,165.07c6.13,0,11.1-2.49,11.1-5.55s-4.97-5.55-11.1-5.55-11.1,2.49-11.1,5.55,4.97,5.55,11.1,5.55Z"/>
    <path class="cls-2" d="M88.95,167.85c0,3.07-4.97,5.55-11.1,5.55s-11.1-2.49-11.1-5.55"/>
    <path class="cls-2" d="M88.95,176.18c0,3.07-4.97,5.55-11.1,5.55s-11.1-2.49-11.1-5.55"/>
  </g>
  <g>
    <path class="cls-9" d="M68.59,203.53l1.02-3.94h.09l1.01,3.94h-2.12ZM71.7,207.41h2.07l-2.92-9.72h-2.26l-2.92,9.72h1.91l.62-2.38h2.89l.61,2.38Z"/>
    <path class="cls-9" d="M74.99,197.69v9.72h1.91v-3.08h1.55c2.09,0,3.43-1.29,3.43-3.31s-1.29-3.33-3.33-3.33h-3.55ZM76.9,199.26h1.16c1.25,0,1.88.58,1.88,1.74s-.63,1.74-1.88,1.74h-1.16v-3.49Z"/>
    <path class="cls-9" d="M89.74,207.41v-1.64h-2.01v-6.43h2.01v-1.64h-5.94v1.64h2.01v6.43h-2.01v1.64h5.94Z"/>
  </g>
  <path class="cls-9" d="M671.9,112.08h5.79v18.8h-5.79v-18.8ZM669.01,117.87h-5.79v13.02h5.79v-13.02ZM687.81,133.78h-26.03v1.59h26.03v-1.59ZM686.37,120.76h-5.79v10.12h5.79v-10.12Z"/>
  <g id="Layer_2" data-name="Layer 2">
    <g id="Q3_icons" data-name="Q3 icons">
      <path class="cls-9" d="M678.7,166.01c.53,0,.96-.43.96-.96v-1.45h.72c.4,0,.72-.32.72-.72s-.32-.72-.72-.72h-.72v-.96h.72c.4,0,.72-.32.72-.72s-.32-.72-.72-.72h-.72v-1.45c0-.53-.43-.96-.96-.96h-1.45v-.72c0-.4-.32-.72-.72-.72s-.72.32-.72.72v.72h-.96v-.72c0-.4-.32-.72-.72-.72s-.72.32-.72.72v.72h-1.45c-.53,0-.96.43-.96.96v1.45h-.72c-.4,0-.72.32-.72.72s.32.72.72.72h.72v.96h-.72c-.4,0-.72.32-.72.72s.32.72.72.72h.72v1.45c0,.53.43.96.96.96h1.45v.72c0,.4.32.72.72.72s.72-.32.72-.72v-.72h.96v.72c0,.4.32.72.72.72s.72-.32.72-.72v-.72h1.45ZM672.43,158.79h5.78v5.78h-5.78v-5.78Z"/>
      <rect class="cls-9" x="673.88" y="160.23" width="2.89" height="2.89"/>
      <g>
        <path class="cls-9" d="M685.73,159.12l-2.22-1.83v-3.57c0-.19-.12-.36-.29-.43l-4.77-2.17h-.19l-.29.1-.24.14v2.89c0,.4.32.72.72.72s.72-.32.72-.72v-.67l2.41,1.11v3.57l.72.58,1.69,1.35v2.99l-1.69,1.35-.72.58v3.57l-2.41,1.11v-.63c0-.4-.32-.72-.72-.72s-.72.32-.72.72v2.89l.24.14.29.1h.19l4.77-2.17c.17-.08.29-.24.29-.43v-3.61l2.22-1.83c.13-.09.2-.23.19-.39v-4.34c.02-.16-.06-.31-.19-.39Z"/>
        <path class="cls-9" d="M672.38,151.08h-.19l-4.77,2.22c-.17.08-.29.24-.29.43v3.57l-2.22,1.83c-.14.08-.21.23-.19.39v4.34c0,.15.06.3.19.39l2.22,1.83v3.57c0,.19.12.36.29.43l4.77,2.17h.19l.29-.1.24-.14v-2.89c0-.4-.32-.72-.72-.72s-.72.32-.72.72v.63l-2.41-1.11v-3.52l-.72-.58-1.69-1.35v-2.99l1.69-1.35.72-.58v-3.57l2.41-1.11v.63c0,.4.32.72.72.72s.72-.32.72-.72v-2.89l-.24-.14-.29-.1Z"/>
      </g>
    </g>
  </g>
  <g>
    <path class="cls-9" d="M670.49,188.28v2.2h1.12v3.25l-5.46,10.91,1.68,2.84h14.73l1.7-2.84h-.03l-5.46-10.91v-3.25h1.08v-2.2h-9.35ZM673.84,190.48h2.72v3.21h-.02l1.43,2.84h-3.63l-4.38,8.75h-1.25l-.36-.62,5.46-10.93h.03v-3.25h0Z"/>
    <path class="cls-3" d="M673.85,190.48v3.25h-.04l-5.46,10.93.36.62h1.26l4.38-8.75h3.62l-1.43-2.83h.02v-3.22h-2.71Z"/>
  </g>
  <g>
    <path class="cls-9" d="M332.53,40.78c2.65-2.59,3.99-5.82,3.99-9.59v-.11c0-3.82-1.37-7.1-4.04-9.69s-5.98-3.91-9.83-3.91h-9.72v27.2h9.72c3.91,0,7.24-1.31,9.89-3.91h0ZM317.87,40.04v-17.97h4.78c2.62,0,4.81.85,6.5,2.51,1.67,1.67,2.51,3.85,2.51,6.47s-.85,4.72-2.51,6.42-3.85,2.57-6.53,2.57h-4.78.03Z"/>
    <path class="cls-9" d="M360.22,44.63v-20.65h-4.78v2.38c-1.61-1.8-3.71-2.73-6.31-2.73s-5.3,1.04-7.29,3.11h0c-1.99,2.08-3,4.62-3,7.54s1.01,5.41,3,7.48,4.45,3.14,7.26,3.14,4.7-.9,6.31-2.68v2.38h4.81v.03ZM355.75,34.31c0,1.69-.63,3.2-1.83,4.42-1.23,1.23-2.7,1.86-4.4,1.86s-3.2-.63-4.4-1.83-1.8-2.7-1.8-4.42.6-3.22,1.8-4.45,2.68-1.86,4.4-1.86,3.17.63,4.4,1.88,1.83,2.73,1.83,4.42h0v-.03Z"/>
    <path class="cls-9" d="M366.94,37.88c0,2.95.82,4.89,2.43,5.79,1.58.9,3.14,1.34,4.67,1.34s2.46-.19,3.82-.57h.14v-4.7l-.25.08c-1.28.41-2.38.6-3.28.6s-1.2-.16-1.88-.44c-.66-.27-.98-.98-.98-2.16v-9.67h6.23v-4.21h-6.23v-6.17l-4.7,1.37v4.81h-3.82v4.21h3.82v9.72h.03Z"/>
    <path class="cls-9" d="M389.96,44.93c2.59,0,4.7-.9,6.31-2.68v2.38h4.78v-20.65h-4.78v2.38c-1.61-1.8-3.71-2.73-6.31-2.73s-5.3,1.04-7.29,3.11h0c-1.99,2.08-3,4.62-3,7.54s1.01,5.41,3,7.48,4.45,3.14,7.26,3.14h.03v.03ZM384.15,34.31c0-1.72.6-3.22,1.8-4.45s2.68-1.86,4.4-1.86,3.17.63,4.4,1.88c1.23,1.26,1.83,2.73,1.83,4.42s-.63,3.2-1.83,4.42c-1.23,1.23-2.7,1.86-4.4,1.86s-3.2-.63-4.4-1.83-1.8-2.7-1.8-4.42h0v-.03Z"/>
    <polygon class="cls-9" points="405.83 44.93 410.72 44.93 410.72 33.6 423.99 33.6 423.99 29.12 410.72 29.12 410.72 22.4 425.52 22.4 425.52 17.81 405.83 17.81 405.83 44.93"/>
    <path class="cls-9" d="M436.91,23.96c-2.92,0-5.43,1.04-7.51,3.11s-3.11,4.59-3.11,7.51,1.04,5.46,3.11,7.54c2.08,2.08,4.59,3.14,7.51,3.14s5.41-1.07,7.48-3.14c2.08-2.08,3.11-4.62,3.11-7.54s-1.04-5.41-3.09-7.48-4.59-3.14-7.48-3.14h-.03ZM442.97,34.58c0,1.69-.6,3.2-1.78,4.42s-2.62,1.86-4.29,1.86-3.14-.63-4.34-1.86c-1.17-1.23-1.78-2.7-1.78-4.42s.6-3.17,1.78-4.4,2.65-1.83,4.34-1.83,3.14.63,4.31,1.83c1.17,1.23,1.78,2.7,1.78,4.4h-.03Z"/>
    <path class="cls-9" d="M460.72,24.07c-1.2,0-2.38.27-3.5.85-.96.46-1.72,1.2-2.35,2.18v-2.79h-4.78v20.65h4.78v-10.46c0-2.08.6-3.52,1.83-4.31,1.23-.82,2.43-1.23,3.52-1.23s1.42.14,2.18.38l.25.08v-5.13h-.16c-.63-.14-1.23-.19-1.78-.19h0v-.03Z"/>
    <path class="cls-9" d="M480.33,26.66c-1.61-1.78-3.71-2.68-6.31-2.7h-.22c-2.79,0-5.19.98-7.13,2.95-1.94,1.97-2.92,4.45-2.92,7.43s.98,5.41,2.92,7.37c1.94,1.97,4.42,2.98,7.37,2.98s4.72-.85,6.31-2.51v1.15c0,1.99-.55,3.52-1.56,4.48s-2.32,1.47-3.91,1.47-2.27-.27-3.28-.85c-1.01-.55-1.72-1.42-2.16-2.59l-.05-.14h-4.78l.05.25c.6,2.54,1.86,4.48,3.8,5.82,1.91,1.31,4.07,1.99,6.44,1.99s5.3-.96,7.26-2.81c1.97-1.86,2.95-4.45,2.95-7.7v-18.93h-4.78v2.35h-.03ZM478.8,30.05c1.2,1.17,1.83,2.62,1.83,4.29s-.63,3.11-1.83,4.29c-1.23,1.17-2.7,1.75-4.4,1.75s-3.17-.57-4.37-1.75c-1.2-1.15-1.8-2.59-1.8-4.29s.6-3.14,1.8-4.29c1.2-1.15,2.68-1.75,4.4-1.75s3.22.6,4.42,1.75h-.05Z"/>
    <path class="cls-9" d="M509.14,32.75c-.44-2.51-1.64-4.62-3.55-6.28s-4.21-2.51-6.8-2.51-5.41,1.04-7.48,3.11c-2.08,2.08-3.11,4.62-3.11,7.56s1.04,5.43,3.06,7.51,4.56,3.11,7.54,3.11,3.88-.49,5.68-1.5c1.83-.98,3.17-2.35,3.99-3.99l.11-.22-4.23-1.12-.08.08c-1.37,1.64-3.2,2.46-5.46,2.46s-2.79-.44-3.88-1.31c-1.04-.82-1.69-1.91-1.97-3.25h16.19v-.14c.16-.55.22-1.09.22-1.64s-.08-1.26-.22-1.86h0v-.03ZM494.89,29.58c1.07-.9,2.35-1.34,3.85-1.34s2.79.46,3.82,1.34c.98.85,1.61,1.88,1.88,3.09h-11.52c.3-1.2.96-2.24,1.94-3.09h.03Z"/>
  </g>
  <path class="cls-8" d="M290.48,33.65c-.08.41-.19.66-.3.66h-1.15c-.22.41-.46,1.17-.46,2.7h.96v3.5c0,.33-2.1.6-4.7.6s-4.7-.27-4.7-.6v-3.5h.96c0-1.53-.22-2.29-.46-2.7h-1.15c-.25,0-.46-1.28-.46-2.84s.22-2.84.46-2.84h.98c.27-.33.6-1.07.6-2.92h-.93v-3.5c0-.33,2.1-.6,4.7-.6s4.7.27,4.7.6v3.5h-.96c0,1.83.33,2.59.6,2.92h.98c.11,0,.19.22.27.55h15.13c-11.63-3.88-20.02-14.88-20.02-27.83h-1.39c0,16.22-13.14,29.36-29.36,29.36v1.34c16.22,0,29.36,13.14,29.36,29.36h1.39c0-12.84,8.25-23.76,19.74-27.75h-14.8Z"/>
  <g class="cls-1">
    <g class="cls-1">
      <path class="cls-9" d="M313.59,50.61c.39-.71.94-1.27,1.65-1.66s1.5-.6,2.39-.6c1.09,0,2.03.29,2.81.87.78.58,1.3,1.36,1.56,2.36h-2.46c-.18-.38-.44-.68-.78-.88s-.72-.3-1.15-.3c-.69,0-1.25.24-1.68.72-.43.48-.64,1.12-.64,1.93s.21,1.45.64,1.93c.43.48.99.72,1.68.72.43,0,.81-.1,1.15-.3s.6-.49.78-.88h2.46c-.26,1-.78,1.78-1.56,2.35-.78.57-1.71.86-2.81.86-.89,0-1.69-.2-2.39-.6s-1.25-.95-1.65-1.66c-.39-.71-.59-1.52-.59-2.43s.2-1.72.59-2.43Z"/>
      <path class="cls-9" d="M325.34,57.15c-.72-.4-1.29-.96-1.72-1.68-.42-.72-.64-1.53-.64-2.43s.21-1.71.64-2.42c.42-.72,1-1.28,1.72-1.68.72-.4,1.51-.6,2.38-.6s1.66.2,2.38.6c.72.4,1.29.96,1.7,1.68.42.72.62,1.52.62,2.42s-.21,1.71-.63,2.43c-.42.72-.99,1.28-1.7,1.68-.72.4-1.51.6-2.37.6s-1.66-.2-2.38-.6ZM329.49,54.97c.44-.49.66-1.14.66-1.94s-.22-1.46-.66-1.95c-.44-.49-1.03-.73-1.76-.73s-1.33.24-1.78.72c-.44.48-.66,1.13-.66,1.95s.22,1.46.66,1.95c.44.48,1.03.73,1.78.73s1.32-.24,1.76-.73Z"/>
      <path class="cls-9" d="M338.37,57.66l-1.91-3.47h-.54v3.47h-2.24v-9.2h3.76c.72,0,1.34.13,1.85.38s.89.6,1.15,1.04c.25.44.38.93.38,1.47,0,.61-.17,1.16-.52,1.64s-.85.82-1.53,1.02l2.12,3.64h-2.53ZM335.92,52.6h1.39c.41,0,.72-.1.93-.3.21-.2.31-.48.31-.85s-.1-.62-.31-.83c-.21-.2-.51-.3-.93-.3h-1.39v2.28Z"/>
      <path class="cls-9" d="M344.46,50.25v1.86h3v1.73h-3v2.02h3.39v1.8h-5.64v-9.2h5.64v1.8h-3.39Z"/>
    </g>
  </g>
  <path class="cls-5" d="M125.11,158.5l-.03,44.13c0,16.57-13.43,30-30,30h-34c-16.57,0-30-13.43-30-30v-86.96c0-16.57,13.43-30,30-30h34c16.57,0,30,13.43,30,30v28.58"/>
  <rect class="cls-5" x="212.19" y="113.29" width="130" height="73.33" rx="17.33" ry="17.33"/>
  <rect class="cls-5" x="413.52" y="113.29" width="130" height="73.33" rx="17.33" ry="17.33"/>
  <path class="cls-5" d="M577.52,158.64v43.99c0,16.57-13.43,30-30,30H206.86c-16.57,0-30-13.43-30-30v-43.99"/>
  <path class="cls-5" d="M176.86,143.97v-28.31c0-16.57,13.43-30,30-30h340.67c16.57,0,30,13.43,30,30v28.64"/>
  <path class="cls-5" d="M626.52,144.31v-28.64c0-16.57,13.43-30,30-30h34c16.57,0,30,13.43,30,30v86.96c0,16.57-13.43,30-30,30h-34c-16.57,0-30-13.43-30-30v-43.99"/>
  <g>
    <path class="cls-9" d="M264.93,146.62v-10.18h4.02c.77,0,1.43.14,1.97.41.55.27.96.66,1.25,1.16s.43,1.08.43,1.76-.15,1.26-.44,1.74c-.29.49-.71.86-1.27,1.12-.55.26-1.22.39-2,.39h-2.69v-1.73h2.34c.41,0,.75-.06,1.02-.17.27-.11.47-.28.61-.51s.2-.51.2-.84-.07-.62-.2-.86-.34-.41-.61-.53-.62-.18-1.03-.18h-1.45v8.42h-2.15ZM270.43,141.99l2.53,4.63h-2.38l-2.48-4.63h2.32Z"/>
    <path class="cls-9" d="M275.79,146.77c-.49,0-.92-.09-1.3-.26-.38-.17-.68-.42-.9-.76-.22-.34-.33-.76-.33-1.26,0-.42.08-.78.23-1.07.16-.29.37-.52.64-.7.27-.18.57-.31.92-.4.34-.09.7-.15,1.08-.19.44-.05.8-.09,1.07-.13.27-.04.47-.1.59-.19.12-.08.18-.21.18-.37v-.03c0-.31-.1-.56-.3-.73-.2-.17-.48-.26-.84-.26-.38,0-.68.08-.91.25-.23.17-.38.38-.45.63l-1.96-.16c.1-.46.29-.87.59-1.21.29-.34.67-.6,1.13-.79.46-.18,1-.28,1.61-.28.42,0,.83.05,1.22.15.39.1.74.25,1.04.46s.54.48.72.8.26.72.26,1.17v5.15h-2.01v-1.06h-.06c-.12.24-.29.45-.49.63s-.45.32-.74.42c-.29.1-.62.15-1,.15ZM276.4,145.31c.31,0,.59-.06.83-.19s.43-.29.56-.5c.14-.21.2-.45.2-.72v-.81c-.07.04-.16.08-.27.12s-.24.07-.39.09-.29.05-.43.07-.27.04-.39.06c-.25.04-.47.09-.65.17-.19.08-.33.19-.43.32-.1.13-.15.3-.15.5,0,.29.1.51.32.66.21.15.48.23.8.23Z"/>
    <path class="cls-9" d="M282.78,146.62l-2.08-7.64h2.14l1.18,5.13h.07l1.23-5.13h2.1l1.25,5.1h.06l1.16-5.1h2.14l-2.07,7.64h-2.24l-1.31-4.8h-.09l-1.31,4.8h-2.24Z"/>
    <path class="cls-9" d="M267.44,163.42h-3.61v-10.18h3.64c1.02,0,1.91.2,2.65.61.74.41,1.31.99,1.71,1.75s.6,1.67.6,2.72-.2,1.97-.6,2.73c-.4.76-.97,1.35-1.72,1.75-.74.41-1.63.61-2.67.61ZM265.99,161.58h1.37c.64,0,1.17-.11,1.61-.34.44-.23.76-.58.98-1.06.22-.48.33-1.1.33-1.86s-.11-1.37-.33-1.84c-.22-.48-.55-.83-.98-1.05s-.97-.34-1.61-.34h-1.37v6.49Z"/>
    <path class="cls-9" d="M275.69,163.57c-.49,0-.92-.09-1.3-.26-.38-.17-.68-.42-.9-.76-.22-.34-.33-.76-.33-1.26,0-.42.08-.78.23-1.07.16-.29.37-.52.64-.7.27-.18.57-.31.92-.4.34-.09.7-.15,1.08-.19.44-.05.8-.09,1.07-.13.27-.04.47-.1.59-.19.12-.08.18-.21.18-.37v-.03c0-.31-.1-.56-.3-.73-.2-.17-.48-.26-.84-.26-.38,0-.68.08-.91.25-.23.17-.38.38-.45.63l-1.96-.16c.1-.46.29-.87.59-1.21.29-.34.67-.6,1.13-.79.46-.18,1-.28,1.61-.28.42,0,.83.05,1.22.15.39.1.74.25,1.04.46s.54.48.72.8.26.72.26,1.17v5.15h-2.01v-1.06h-.06c-.12.24-.29.45-.49.63s-.45.32-.74.42c-.29.1-.62.15-1,.15ZM276.3,162.11c.31,0,.59-.06.83-.19s.43-.29.56-.5c.14-.21.2-.45.2-.72v-.81c-.07.04-.16.08-.27.12s-.24.07-.39.09-.29.05-.43.07-.27.04-.39.06c-.25.04-.47.09-.65.17-.19.08-.33.19-.43.32-.1.13-.15.3-.15.5,0,.29.1.51.32.66.21.15.48.23.8.23Z"/>
    <path class="cls-9" d="M285.24,155.79v1.59h-4.6v-1.59h4.6ZM281.68,153.96h2.12v7.12c0,.2.03.35.09.46s.14.18.25.23c.11.04.23.06.38.06.1,0,.2,0,.3-.03.1-.02.18-.03.23-.04l.33,1.58c-.11.03-.26.07-.45.12s-.43.07-.7.08c-.51.02-.96-.05-1.34-.2-.38-.16-.68-.4-.89-.73-.21-.33-.32-.74-.31-1.24v-7.4Z"/>
    <path class="cls-9" d="M288.33,163.57c-.49,0-.92-.09-1.3-.26-.38-.17-.68-.42-.9-.76-.22-.34-.33-.76-.33-1.26,0-.42.08-.78.23-1.07.16-.29.37-.52.64-.7.27-.18.57-.31.92-.4.34-.09.7-.15,1.08-.19.44-.05.8-.09,1.07-.13.27-.04.47-.1.59-.19.12-.08.18-.21.18-.37v-.03c0-.31-.1-.56-.3-.73-.2-.17-.48-.26-.84-.26-.38,0-.68.08-.91.25-.23.17-.38.38-.45.63l-1.96-.16c.1-.46.29-.87.59-1.21.29-.34.67-.6,1.13-.79.46-.18,1-.28,1.61-.28.42,0,.83.05,1.22.15.39.1.74.25,1.04.46s.54.48.72.8.26.72.26,1.17v5.15h-2.01v-1.06h-.06c-.12.24-.29.45-.49.63s-.45.32-.74.42c-.29.1-.62.15-1,.15ZM288.94,162.11c.31,0,.59-.06.83-.19s.43-.29.56-.5c.14-.21.2-.45.2-.72v-.81c-.07.04-.16.08-.27.12s-.24.07-.39.09-.29.05-.43.07-.27.04-.39.06c-.25.04-.47.09-.65.17-.19.08-.33.19-.43.32-.1.13-.15.3-.15.5,0,.29.1.51.32.66.21.15.48.23.8.23Z"/>
  </g>
  <g>
    <path class="cls-9" d="M437.55,138.22v-1.77h8.36v1.77h-3.12v8.41h-2.13v-8.41h-3.12Z"/>
    <path class="cls-9" d="M445.99,146.62v-7.64h2.05v1.33h.08c.14-.47.37-.83.7-1.08.33-.24.71-.37,1.13-.37.11,0,.22,0,.34.02.12.01.23.03.32.05v1.88c-.1-.03-.24-.06-.41-.08-.18-.02-.34-.04-.48-.04-.31,0-.59.07-.83.2-.24.13-.44.32-.58.56s-.21.51-.21.83v4.32h-2.12Z"/>
    <path class="cls-9" d="M453.22,146.77c-.49,0-.92-.09-1.3-.26-.38-.17-.68-.42-.9-.76-.22-.34-.33-.76-.33-1.26,0-.42.08-.78.23-1.07.16-.29.37-.52.64-.7.27-.18.57-.31.92-.4.34-.09.7-.15,1.08-.19.44-.05.8-.09,1.07-.13.27-.04.47-.1.59-.19.12-.08.18-.21.18-.37v-.03c0-.31-.1-.56-.3-.73-.2-.17-.48-.26-.84-.26-.38,0-.68.08-.91.25-.23.17-.38.38-.45.63l-1.96-.16c.1-.46.29-.87.59-1.21.29-.34.67-.6,1.13-.79.46-.18,1-.28,1.61-.28.42,0,.83.05,1.22.15.39.1.74.25,1.04.46s.54.48.72.8.26.72.26,1.17v5.15h-2.01v-1.06h-.06c-.12.24-.29.45-.49.63s-.45.32-.74.42c-.29.1-.62.15-1,.15ZM453.83,145.31c.31,0,.59-.06.83-.19s.43-.29.56-.5c.14-.21.2-.45.2-.72v-.81c-.07.04-.16.08-.27.12s-.24.07-.39.09-.29.05-.43.07-.27.04-.39.06c-.25.04-.47.09-.65.17-.19.08-.33.19-.43.32-.1.13-.15.3-.15.5,0,.29.1.51.32.66.21.15.48.23.8.23Z"/>
    <path class="cls-9" d="M460.82,142.21v4.42h-2.12v-7.64h2.02v1.35h.09c.17-.44.45-.8.85-1.06.4-.26.88-.39,1.45-.39.53,0,.99.12,1.39.35.39.23.7.56.92.99.22.43.33.94.33,1.53v4.86h-2.12v-4.48c0-.47-.12-.83-.36-1.1-.24-.26-.58-.39-1-.39-.29,0-.54.06-.75.18-.22.12-.39.3-.51.53-.12.23-.18.51-.19.84Z"/>
    <path class="cls-9" d="M473.3,141.17l-1.94.12c-.03-.17-.1-.32-.21-.45-.11-.13-.25-.24-.43-.32-.18-.08-.39-.12-.63-.12-.33,0-.6.07-.83.21s-.34.32-.34.55c0,.18.07.34.22.46.15.13.4.23.75.3l1.38.28c.74.15,1.3.4,1.66.74.36.34.55.78.55,1.33,0,.5-.15.94-.44,1.32-.29.38-.7.67-1.2.88-.51.21-1.09.32-1.76.32-1.01,0-1.82-.21-2.41-.63-.6-.42-.95-1-1.05-1.73l2.08-.11c.06.31.21.54.46.7s.55.24.93.24.67-.07.9-.22c.23-.14.34-.33.35-.56,0-.19-.08-.35-.24-.48-.16-.12-.4-.22-.74-.29l-1.32-.26c-.75-.15-1.3-.41-1.66-.78-.36-.37-.54-.84-.54-1.41,0-.49.13-.91.4-1.27s.64-.63,1.13-.82c.49-.19,1.05-.29,1.71-.29.96,0,1.72.2,2.28.61.55.41.88.96.97,1.67Z"/>
    <path class="cls-9" d="M478.45,138.99v1.59h-4.71v-1.59h4.71ZM474.82,146.62v-8.19c0-.55.11-1.01.33-1.38.22-.36.51-.64.89-.82s.81-.27,1.29-.27c.32,0,.62.03.89.07.27.05.47.09.6.13l-.38,1.59c-.08-.03-.18-.05-.31-.07-.12-.02-.24-.04-.37-.04-.31,0-.53.07-.65.22-.12.14-.18.35-.18.6v8.15h-2.11Z"/>
    <path class="cls-9" d="M482.47,146.77c-.77,0-1.44-.17-2-.5-.56-.33-1-.79-1.3-1.38s-.46-1.28-.46-2.06.15-1.48.46-2.07c.3-.59.74-1.05,1.3-1.38s1.23-.49,2-.49,1.44.16,2,.49c.56.33,1,.79,1.3,1.38.3.59.46,1.28.46,2.07s-.15,1.47-.46,2.06c-.31.59-.74,1.05-1.3,1.38-.56.33-1.23.5-2,.5ZM482.48,145.13c.35,0,.65-.1.88-.3.24-.2.41-.47.53-.82.12-.35.18-.74.18-1.19s-.06-.84-.18-1.19c-.12-.35-.3-.62-.53-.83s-.53-.3-.88-.3-.65.1-.89.3-.42.48-.54.83c-.12.35-.18.74-.18,1.19s.06.84.18,1.19c.12.35.3.62.54.82.24.2.54.3.89.3Z"/>
    <path class="cls-9" d="M487.15,146.62v-7.64h2.05v1.33h.08c.14-.47.37-.83.7-1.08.33-.24.71-.37,1.13-.37.11,0,.22,0,.34.02.12.01.23.03.32.05v1.88c-.1-.03-.24-.06-.41-.08-.18-.02-.34-.04-.48-.04-.31,0-.59.07-.83.2-.24.13-.44.32-.58.56-.14.24-.21.51-.21.83v4.32h-2.12Z"/>
    <path class="cls-9" d="M492.41,146.62v-7.64h2.02v1.35h.09c.16-.45.42-.8.79-1.06.37-.26.82-.39,1.33-.39s.97.13,1.34.39c.37.26.61.61.74,1.06h.08c.16-.44.44-.79.85-1.05s.89-.39,1.45-.39c.71,0,1.29.23,1.74.68.45.45.67,1.09.67,1.92v5.14h-2.11v-4.72c0-.42-.11-.74-.34-.96-.23-.21-.51-.32-.84-.32-.38,0-.68.12-.9.37-.21.24-.32.56-.32.96v4.66h-2.05v-4.76c0-.38-.11-.67-.32-.89-.21-.22-.5-.33-.84-.33-.24,0-.45.06-.63.18-.19.12-.34.28-.45.49-.11.21-.16.46-.16.74v4.58h-2.12Z"/>
    <path class="cls-9" d="M508.19,146.77c-.79,0-1.46-.16-2.03-.48-.57-.32-1-.77-1.31-1.36-.3-.59-.46-1.29-.46-2.09s.15-1.47.46-2.07c.31-.59.74-1.06,1.29-1.39.55-.33,1.21-.5,1.96-.5.5,0,.97.08,1.41.24.44.16.82.4,1.14.72s.58.73.76,1.21c.18.49.27,1.05.27,1.7v.58h-6.45v-1.31h4.45c0-.3-.07-.58-.2-.81-.13-.24-.32-.42-.55-.55-.23-.13-.5-.2-.81-.2s-.61.07-.85.22-.44.34-.58.59c-.14.25-.21.52-.21.82v1.25c0,.38.07.7.21.98.14.28.34.49.6.64.26.15.57.22.92.22.24,0,.45-.03.65-.1.2-.07.36-.17.5-.3.14-.13.25-.29.32-.49l1.96.13c-.1.47-.3.88-.61,1.23s-.7.62-1.18.82c-.48.19-1.04.29-1.67.29Z"/>
    <path class="cls-9" d="M515.43,146.75c-.58,0-1.1-.15-1.57-.45-.47-.3-.84-.74-1.11-1.33s-.41-1.3-.41-2.16.14-1.6.42-2.18c.28-.58.66-1.02,1.13-1.31.47-.29.98-.43,1.54-.43.43,0,.79.07,1.07.22.29.14.52.32.7.54.18.21.31.42.41.63h.06v-3.83h2.11v10.18h-2.09v-1.22h-.09c-.1.21-.24.42-.42.63s-.42.38-.7.51c-.29.14-.64.2-1.05.2ZM516.1,145.06c.34,0,.63-.09.87-.28.24-.19.42-.45.55-.79.13-.34.19-.73.19-1.19s-.06-.85-.19-1.18c-.13-.33-.31-.59-.55-.78-.24-.18-.53-.27-.87-.27s-.64.09-.88.28c-.24.19-.42.45-.54.79-.12.33-.18.72-.18,1.16s.06.84.19,1.18.3.61.54.8c.24.19.53.29.88.29Z"/>
    <path class="cls-9" d="M468.11,163.42h-3.61v-10.18h3.64c1.02,0,1.91.2,2.64.61.74.41,1.31.99,1.71,1.75s.6,1.67.6,2.72-.2,1.97-.6,2.73c-.4.76-.97,1.35-1.71,1.75-.74.41-1.63.61-2.67.61ZM466.65,161.58h1.37c.64,0,1.17-.11,1.61-.34.44-.23.76-.58.98-1.06.22-.48.33-1.1.33-1.86s-.11-1.37-.33-1.84c-.22-.48-.55-.83-.98-1.05-.43-.23-.97-.34-1.61-.34h-1.37v6.49Z"/>
    <path class="cls-9" d="M476.36,163.57c-.49,0-.92-.09-1.3-.26-.38-.17-.68-.42-.9-.76-.22-.34-.33-.76-.33-1.26,0-.42.08-.78.23-1.07.16-.29.37-.52.64-.7s.57-.31.92-.4c.34-.09.7-.15,1.08-.19.44-.05.8-.09,1.07-.13.27-.04.47-.1.59-.19s.18-.21.18-.37v-.03c0-.31-.1-.56-.29-.73-.2-.17-.48-.26-.84-.26-.38,0-.68.08-.91.25s-.38.38-.45.63l-1.96-.16c.1-.46.29-.87.59-1.21.29-.34.67-.6,1.13-.79s1-.28,1.61-.28c.42,0,.83.05,1.22.15.39.1.74.25,1.04.46.3.21.54.48.72.8s.26.72.26,1.17v5.15h-2.01v-1.06h-.06c-.12.24-.29.45-.49.63-.21.18-.45.32-.74.42-.29.1-.62.15-1,.15ZM476.97,162.11c.31,0,.59-.06.83-.19.24-.12.43-.29.56-.5.14-.21.2-.45.2-.72v-.81c-.07.04-.16.08-.27.12s-.24.07-.38.09-.29.05-.43.07-.27.04-.39.06c-.25.04-.47.09-.65.17-.19.08-.33.19-.43.32-.1.13-.15.3-.15.5,0,.29.11.51.32.66.21.15.48.23.8.23Z"/>
    <path class="cls-9" d="M485.9,155.79v1.59h-4.6v-1.59h4.6ZM482.35,153.96h2.12v7.12c0,.2.03.35.09.46s.14.18.25.23c.11.04.23.06.38.06.1,0,.2,0,.3-.03.1-.02.18-.03.23-.04l.33,1.58c-.11.03-.25.07-.45.12s-.43.07-.7.08c-.51.02-.96-.05-1.34-.2-.38-.16-.68-.4-.89-.73s-.32-.74-.31-1.24v-7.4Z"/>
    <path class="cls-9" d="M489,163.57c-.49,0-.92-.09-1.3-.26-.38-.17-.68-.42-.9-.76-.22-.34-.33-.76-.33-1.26,0-.42.08-.78.23-1.07.16-.29.37-.52.64-.7.27-.18.57-.31.92-.4.34-.09.7-.15,1.08-.19.44-.05.8-.09,1.07-.13.27-.04.47-.1.59-.19.12-.08.18-.21.18-.37v-.03c0-.31-.1-.56-.3-.73-.2-.17-.48-.26-.84-.26-.38,0-.68.08-.91.25-.23.17-.38.38-.45.63l-1.96-.16c.1-.46.29-.87.59-1.21.29-.34.67-.6,1.13-.79.46-.18,1-.28,1.61-.28.42,0,.83.05,1.22.15s.74.25,1.04.46c.3.21.54.48.72.8s.26.72.26,1.17v5.15h-2.01v-1.06h-.06c-.12.24-.29.45-.49.63-.21.18-.45.32-.74.42-.29.1-.62.15-1,.15ZM489.6,162.11c.31,0,.59-.06.83-.19.24-.12.43-.29.56-.5.14-.21.2-.45.2-.72v-.81c-.07.04-.16.08-.27.12s-.24.07-.39.09-.29.05-.43.07-.27.04-.39.06c-.25.04-.47.09-.65.17-.19.08-.33.19-.43.32-.1.13-.15.3-.15.5,0,.29.1.51.32.66.21.15.48.23.8.23Z"/>
  </g>
  <g>
    <path class="cls-9" d="M288.99,215.96h-3.61v-10.18h3.64c1.02,0,1.91.2,2.65.61.74.41,1.31.99,1.71,1.75s.6,1.67.6,2.72-.2,1.97-.6,2.73c-.4.76-.97,1.35-1.72,1.75-.74.41-1.63.61-2.67.61ZM287.53,214.11h1.37c.64,0,1.17-.11,1.61-.34.44-.23.76-.58.98-1.06.22-.48.33-1.1.33-1.86s-.11-1.37-.33-1.84c-.22-.48-.55-.83-.98-1.05s-.97-.34-1.61-.34h-1.37v6.49Z"/>
    <path class="cls-9" d="M297.23,216.1c-.49,0-.92-.09-1.3-.26-.38-.17-.68-.42-.9-.76-.22-.34-.33-.76-.33-1.26,0-.42.08-.78.23-1.07.16-.29.37-.52.64-.7.27-.18.57-.31.92-.4.34-.09.7-.15,1.08-.19.44-.05.8-.09,1.07-.13.27-.04.47-.1.59-.19.12-.08.18-.21.18-.37v-.03c0-.31-.1-.56-.3-.73-.2-.17-.48-.26-.84-.26-.38,0-.68.08-.91.25-.23.17-.38.38-.45.63l-1.96-.16c.1-.46.29-.87.59-1.21.29-.34.67-.6,1.13-.79.46-.18,1-.28,1.61-.28.42,0,.83.05,1.22.15.39.1.74.25,1.04.46s.54.48.72.8.26.72.26,1.17v5.15h-2.01v-1.06h-.06c-.12.24-.29.45-.49.63s-.45.32-.74.42c-.29.1-.62.15-1,.15ZM297.84,214.64c.31,0,.59-.06.83-.19s.43-.29.56-.5c.14-.21.2-.45.2-.72v-.81c-.07.04-.16.08-.27.12s-.24.07-.39.09-.29.05-.43.07-.27.04-.39.06c-.25.04-.47.09-.65.17-.19.08-.33.19-.43.32-.1.13-.15.3-.15.5,0,.29.1.51.32.66.21.15.48.23.8.23Z"/>
    <path class="cls-9" d="M306.78,208.32v1.59h-4.6v-1.59h4.6ZM303.22,206.49h2.12v7.12c0,.2.03.35.09.46s.14.18.25.23c.11.04.23.06.38.06.1,0,.2,0,.3-.03.1-.02.18-.03.23-.04l.33,1.58c-.11.03-.26.07-.45.12s-.43.07-.7.08c-.51.02-.96-.05-1.34-.2-.38-.16-.68-.4-.89-.73-.21-.33-.32-.74-.31-1.24v-7.4Z"/>
    <path class="cls-9" d="M309.87,216.1c-.49,0-.92-.09-1.3-.26-.38-.17-.68-.42-.9-.76-.22-.34-.33-.76-.33-1.26,0-.42.08-.78.23-1.07.16-.29.37-.52.64-.7.27-.18.57-.31.92-.4.34-.09.7-.15,1.08-.19.44-.05.8-.09,1.07-.13.27-.04.47-.1.59-.19.12-.08.18-.21.18-.37v-.03c0-.31-.1-.56-.3-.73-.2-.17-.48-.26-.84-.26-.38,0-.68.08-.91.25-.23.17-.38.38-.45.63l-1.96-.16c.1-.46.29-.87.59-1.21.29-.34.67-.6,1.13-.79.46-.18,1-.28,1.61-.28.42,0,.83.05,1.22.15.39.1.74.25,1.04.46s.54.48.72.8.26.72.26,1.17v5.15h-2.01v-1.06h-.06c-.12.24-.29.45-.49.63s-.45.32-.74.42c-.29.1-.62.15-1,.15ZM310.48,214.64c.31,0,.59-.06.83-.19s.43-.29.56-.5c.14-.21.2-.45.2-.72v-.81c-.07.04-.16.08-.27.12s-.24.07-.39.09-.29.05-.43.07-.27.04-.39.06c-.25.04-.47.09-.65.17-.19.08-.33.19-.43.32-.1.13-.15.3-.15.5,0,.29.1.51.32.66.21.15.48.23.8.23Z"/>
    <path class="cls-9" d="M320.47,215.96l-2.91-10.18h2.35l1.69,7.07h.08l1.86-7.07h2.01l1.85,7.09h.09l1.69-7.09h2.35l-2.91,10.18h-2.1l-1.94-6.66h-.08l-1.93,6.66h-2.1Z"/>
    <path class="cls-9" d="M333.53,216.1c-.49,0-.92-.09-1.3-.26-.38-.17-.68-.42-.9-.76-.22-.34-.33-.76-.33-1.26,0-.42.08-.78.23-1.07.16-.29.37-.52.64-.7.27-.18.57-.31.92-.4.34-.09.7-.15,1.08-.19.44-.05.8-.09,1.07-.13.27-.04.47-.1.59-.19.12-.08.18-.21.18-.37v-.03c0-.31-.1-.56-.3-.73-.2-.17-.48-.26-.84-.26-.38,0-.68.08-.91.25-.23.17-.38.38-.45.63l-1.96-.16c.1-.46.29-.87.59-1.21.29-.34.67-.6,1.13-.79.46-.18,1-.28,1.61-.28.42,0,.83.05,1.22.15.39.1.74.25,1.04.46s.54.48.72.8.26.72.26,1.17v5.15h-2.01v-1.06h-.06c-.12.24-.29.45-.49.63s-.45.32-.74.42c-.29.1-.62.15-1,.15ZM334.14,214.64c.31,0,.59-.06.83-.19s.43-.29.56-.5c.14-.21.2-.45.2-.72v-.81c-.07.04-.16.08-.27.12s-.24.07-.39.09-.29.05-.43.07-.27.04-.39.06c-.25.04-.47.09-.65.17-.19.08-.33.19-.43.32-.1.13-.15.3-.15.5,0,.29.1.51.32.66.21.15.48.23.8.23Z"/>
    <path class="cls-9" d="M339.02,215.96v-7.64h2.05v1.33h.08c.14-.47.37-.83.7-1.08.33-.24.71-.37,1.13-.37.11,0,.22,0,.34.02.12.01.23.03.32.05v1.88c-.1-.03-.24-.06-.41-.08-.18-.02-.34-.04-.48-.04-.31,0-.59.07-.83.2-.24.13-.44.32-.58.56s-.21.51-.21.83v4.32h-2.12Z"/>
    <path class="cls-9" d="M347.4,216.11c-.79,0-1.46-.16-2.03-.48-.56-.32-1-.77-1.31-1.36-.3-.59-.46-1.29-.46-2.09s.15-1.47.46-2.07c.31-.59.74-1.06,1.29-1.39.55-.33,1.21-.5,1.96-.5.5,0,.97.08,1.41.24.44.16.82.4,1.14.72.33.32.58.73.76,1.21.18.49.27,1.05.27,1.7v.58h-6.45v-1.31h4.45c0-.3-.07-.58-.2-.81-.13-.24-.32-.42-.55-.55-.23-.13-.5-.2-.81-.2s-.61.07-.85.22-.44.34-.58.59-.21.52-.21.82v1.25c0,.38.07.7.21.98.14.28.34.49.6.64.26.15.56.22.92.22.24,0,.45-.03.65-.1s.36-.17.5-.3c.14-.13.25-.29.32-.49l1.96.13c-.1.47-.3.88-.61,1.23-.31.35-.7.62-1.18.82-.48.19-1.04.29-1.67.29Z"/>
    <path class="cls-9" d="M353.94,211.54v4.42h-2.12v-10.18h2.06v3.89h.09c.17-.45.45-.8.84-1.06.38-.26.87-.38,1.45-.38.53,0,.99.12,1.39.34.4.23.7.56.92.99.22.43.33.94.33,1.54v4.86h-2.12v-4.48c0-.47-.12-.84-.36-1.1s-.58-.39-1.01-.39c-.29,0-.54.06-.76.18-.22.12-.39.3-.52.53-.12.23-.19.51-.19.84Z"/>
    <path class="cls-9" d="M363.55,216.11c-.77,0-1.44-.17-2-.5-.56-.33-1-.79-1.3-1.38-.3-.59-.46-1.28-.46-2.06s.15-1.48.46-2.07c.31-.59.74-1.05,1.3-1.38.56-.33,1.23-.49,2-.49s1.44.16,2,.49c.56.33,1,.79,1.3,1.38.3.59.46,1.28.46,2.07s-.15,1.47-.46,2.06c-.31.59-.74,1.05-1.3,1.38-.56.33-1.23.5-2,.5ZM363.56,214.47c.35,0,.65-.1.88-.3.24-.2.41-.47.53-.82.12-.35.18-.74.18-1.19s-.06-.84-.18-1.19c-.12-.35-.3-.62-.53-.83s-.53-.3-.88-.3-.65.1-.89.3-.42.48-.54.83c-.12.35-.18.74-.18,1.19s.06.84.18,1.19c.12.35.3.62.54.82.24.2.54.3.89.3Z"/>
    <path class="cls-9" d="M373.13,212.71v-4.39h2.12v7.64h-2.03v-1.39h-.08c-.17.45-.46.81-.86,1.08-.4.27-.89.41-1.46.41-.51,0-.96-.12-1.35-.35-.39-.23-.69-.56-.91-.99-.22-.43-.33-.94-.33-1.54v-4.86h2.12v4.48c0,.45.12.81.36,1.07.24.26.56.39.96.39.25,0,.49-.06.72-.18.22-.12.4-.29.54-.52.14-.23.2-.52.2-.86Z"/>
    <path class="cls-9" d="M382.83,210.5l-1.94.12c-.03-.17-.1-.32-.21-.45-.11-.13-.25-.24-.43-.32s-.39-.12-.63-.12c-.33,0-.6.07-.83.21-.23.14-.34.32-.34.55,0,.18.07.34.22.46s.4.23.75.3l1.38.28c.74.15,1.3.4,1.66.74.36.34.55.78.55,1.33,0,.5-.15.94-.44,1.32-.29.38-.69.67-1.2.88-.51.21-1.09.32-1.76.32-1.01,0-1.82-.21-2.41-.63-.6-.42-.95-1-1.05-1.73l2.08-.11c.06.31.22.54.46.7.24.16.55.24.93.24s.67-.07.9-.22c.23-.14.34-.33.35-.56,0-.19-.08-.35-.24-.48-.16-.12-.4-.22-.74-.29l-1.32-.26c-.75-.15-1.3-.41-1.66-.78-.36-.37-.54-.84-.54-1.41,0-.49.13-.91.4-1.27.27-.35.64-.63,1.13-.82.49-.19,1.05-.29,1.71-.29.96,0,1.72.2,2.28.61.56.41.88.96.97,1.67Z"/>
    <path class="cls-9" d="M387.36,216.11c-.79,0-1.46-.16-2.03-.48-.56-.32-1-.77-1.31-1.36-.3-.59-.46-1.29-.46-2.09s.15-1.47.46-2.07c.31-.59.74-1.06,1.29-1.39.55-.33,1.21-.5,1.96-.5.5,0,.97.08,1.41.24.44.16.82.4,1.14.72.33.32.58.73.76,1.21.18.49.27,1.05.27,1.7v.58h-6.45v-1.31h4.45c0-.3-.07-.58-.2-.81-.13-.24-.32-.42-.55-.55-.23-.13-.5-.2-.81-.2s-.61.07-.85.22-.44.34-.58.59-.21.52-.21.82v1.25c0,.38.07.7.21.98.14.28.34.49.6.64.26.15.56.22.92.22.24,0,.45-.03.65-.1s.36-.17.5-.3c.14-.13.25-.29.32-.49l1.96.13c-.1.47-.3.88-.61,1.23-.31.35-.7.62-1.18.82-.48.19-1.04.29-1.67.29Z"/>
    <path class="cls-9" d="M399,205.3l-3.28,12.19h-1.82l3.28-12.19h1.82Z"/>
    <path class="cls-9" d="M402.39,215.96v-10.18h2.15v8.41h4.37v1.77h-6.52Z"/>
    <path class="cls-9" d="M412.01,216.1c-.49,0-.92-.09-1.3-.26-.38-.17-.68-.42-.9-.76-.22-.34-.33-.76-.33-1.26,0-.42.08-.78.23-1.07.16-.29.37-.52.64-.7.27-.18.57-.31.92-.4.34-.09.7-.15,1.08-.19.44-.05.8-.09,1.07-.13.27-.04.47-.1.59-.19.12-.08.18-.21.18-.37v-.03c0-.31-.1-.56-.3-.73-.2-.17-.48-.26-.84-.26-.38,0-.68.08-.91.25-.23.17-.38.38-.45.63l-1.96-.16c.1-.46.29-.87.59-1.21.29-.34.67-.6,1.13-.79.46-.18,1-.28,1.61-.28.42,0,.83.05,1.22.15.39.1.74.25,1.04.46s.54.48.72.8.26.72.26,1.17v5.15h-2.01v-1.06h-.06c-.12.24-.29.45-.49.63s-.45.32-.74.42c-.29.1-.62.15-1,.15ZM412.61,214.64c.31,0,.59-.06.83-.19s.43-.29.56-.5c.14-.21.2-.45.2-.72v-.81c-.07.04-.16.08-.27.12s-.24.07-.39.09-.29.05-.43.07-.27.04-.39.06c-.25.04-.47.09-.65.17-.19.08-.33.19-.43.32-.1.13-.15.3-.15.5,0,.29.1.51.32.66.21.15.48.23.8.23Z"/>
    <path class="cls-9" d="M417.49,215.96v-10.18h2.12v10.18h-2.12ZM419.41,213.76v-2.54h.31l2.45-2.9h2.43l-3.29,3.84h-.5l-1.4,1.6ZM422.26,215.96l-2.25-3.33,1.41-1.5,3.32,4.82h-2.48Z"/>
    <path class="cls-9" d="M428.33,216.11c-.79,0-1.46-.16-2.03-.48-.56-.32-1-.77-1.31-1.36-.3-.59-.46-1.29-.46-2.09s.15-1.47.46-2.07c.31-.59.74-1.06,1.29-1.39.55-.33,1.21-.5,1.96-.5.5,0,.97.08,1.41.24.44.16.82.4,1.14.72.33.32.58.73.76,1.21.18.49.27,1.05.27,1.7v.58h-6.45v-1.31h4.45c0-.3-.07-.58-.2-.81-.13-.24-.32-.42-.55-.55-.23-.13-.5-.2-.81-.2s-.61.07-.85.22-.44.34-.58.59-.21.52-.21.82v1.25c0,.38.07.7.21.98.14.28.34.49.6.64.26.15.56.22.92.22.24,0,.45-.03.65-.1s.36-.17.5-.3c.14-.13.25-.29.32-.49l1.96.13c-.1.47-.3.88-.61,1.23-.31.35-.7.62-1.18.82-.48.19-1.04.29-1.67.29Z"/>
    <path class="cls-9" d="M434.88,211.54v4.42h-2.12v-10.18h2.06v3.89h.09c.17-.45.45-.8.84-1.06.38-.26.87-.38,1.45-.38.53,0,.99.12,1.39.34.4.23.7.56.92.99.22.43.33.94.33,1.54v4.86h-2.12v-4.48c0-.47-.12-.84-.36-1.1s-.58-.39-1.01-.39c-.29,0-.54.06-.76.18-.22.12-.39.3-.52.53-.12.23-.19.51-.19.84Z"/>
    <path class="cls-9" d="M444.49,216.11c-.77,0-1.44-.17-2-.5-.56-.33-1-.79-1.3-1.38-.3-.59-.46-1.28-.46-2.06s.15-1.48.46-2.07c.31-.59.74-1.05,1.3-1.38.56-.33,1.23-.49,2-.49s1.44.16,2,.49c.56.33,1,.79,1.3,1.38.3.59.46,1.28.46,2.07s-.15,1.47-.46,2.06c-.31.59-.74,1.05-1.3,1.38-.56.33-1.23.5-2,.5ZM444.5,214.47c.35,0,.65-.1.88-.3.24-.2.41-.47.53-.82.12-.35.18-.74.18-1.19s-.06-.84-.18-1.19c-.12-.35-.3-.62-.53-.83s-.53-.3-.88-.3-.65.1-.89.3-.42.48-.54.83c-.12.35-.18.74-.18,1.19s.06.84.18,1.19c.12.35.3.62.54.82.24.2.54.3.89.3Z"/>
    <path class="cls-9" d="M454.06,212.71v-4.39h2.12v7.64h-2.03v-1.39h-.08c-.17.45-.46.81-.86,1.08-.4.27-.89.41-1.46.41-.51,0-.96-.12-1.35-.35-.39-.23-.69-.56-.91-.99-.22-.43-.33-.94-.33-1.54v-4.86h2.12v4.48c0,.45.12.81.36,1.07.24.26.56.39.96.39.25,0,.49-.06.72-.18.22-.12.4-.29.54-.52.14-.23.2-.52.2-.86Z"/>
    <path class="cls-9" d="M463.76,210.5l-1.94.12c-.03-.17-.1-.32-.21-.45-.11-.13-.25-.24-.43-.32-.18-.08-.39-.12-.63-.12-.33,0-.6.07-.83.21s-.34.32-.34.55c0,.18.07.34.22.46.15.13.4.23.75.3l1.38.28c.74.15,1.3.4,1.66.74.36.34.55.78.55,1.33,0,.5-.15.94-.44,1.32-.29.38-.7.67-1.2.88-.51.21-1.09.32-1.76.32-1.01,0-1.82-.21-2.41-.63-.6-.42-.95-1-1.05-1.73l2.08-.11c.06.31.21.54.46.7s.55.24.93.24.67-.07.9-.22c.23-.14.34-.33.35-.56,0-.19-.08-.35-.24-.48-.16-.12-.4-.22-.74-.29l-1.32-.26c-.75-.15-1.3-.41-1.66-.78-.36-.37-.54-.84-.54-1.41,0-.49.13-.91.4-1.27.27-.35.64-.63,1.13-.82.49-.19,1.05-.29,1.71-.29.96,0,1.72.2,2.28.61.55.41.88.96.97,1.67Z"/>
    <path class="cls-9" d="M468.29,216.11c-.79,0-1.46-.16-2.03-.48-.57-.32-1-.77-1.31-1.36-.3-.59-.46-1.29-.46-2.09s.15-1.47.46-2.07c.31-.59.74-1.06,1.29-1.39.55-.33,1.21-.5,1.96-.5.5,0,.97.08,1.41.24.44.16.82.4,1.14.72s.58.73.76,1.21c.18.49.27,1.05.27,1.7v.58h-6.45v-1.31h4.45c0-.3-.07-.58-.2-.81-.13-.24-.32-.42-.55-.55-.23-.13-.5-.2-.81-.2s-.61.07-.85.22-.44.34-.58.59c-.14.25-.21.52-.21.82v1.25c0,.38.07.7.21.98.14.28.34.49.6.64.26.15.57.22.92.22.24,0,.45-.03.65-.1.2-.07.36-.17.5-.3.14-.13.25-.29.32-.49l1.96.13c-.1.47-.3.88-.61,1.23s-.7.62-1.18.82c-.48.19-1.04.29-1.67.29Z"/>
  </g>
  <g>
    <path class="cls-9" d="M44.61,62.67c-.04-.4-.21-.71-.51-.93-.3-.22-.71-.33-1.23-.33-.35,0-.65.05-.89.15-.24.1-.43.23-.55.41-.13.17-.19.37-.19.59,0,.18.03.34.12.48.08.14.2.25.35.35.15.1.32.18.52.25.2.07.4.13.63.18l.92.22c.44.1.85.23,1.22.4.37.17.69.37.96.61.27.24.48.53.63.85.15.33.23.7.23,1.13,0,.62-.16,1.16-.47,1.62-.31.46-.76.81-1.35,1.06-.59.25-1.3.38-2.13.38s-1.54-.13-2.14-.38c-.61-.25-1.08-.63-1.42-1.12-.34-.5-.52-1.11-.54-1.84h2.08c.02.34.12.62.29.85.17.23.41.4.7.51.29.11.63.17,1,.17s.68-.05.95-.16c.27-.11.48-.25.63-.44.15-.19.22-.41.22-.65,0-.23-.07-.42-.2-.58-.13-.16-.33-.29-.59-.4s-.57-.21-.94-.3l-1.11-.28c-.86-.21-1.54-.54-2.03-.98-.5-.44-.74-1.04-.74-1.79,0-.62.16-1.16.5-1.62s.79-.82,1.38-1.08c.58-.26,1.25-.39,1.99-.39s1.42.13,1.98.39c.56.26,1,.62,1.32,1.08.32.46.48.99.49,1.6h-2.06Z"/>
    <path class="cls-9" d="M51.2,70.07c-.77,0-1.44-.17-2-.5-.56-.33-1-.79-1.3-1.38s-.46-1.28-.46-2.06.15-1.48.46-2.07c.3-.59.74-1.05,1.3-1.38s1.23-.49,2-.49,1.44.16,2,.49c.56.33,1,.79,1.3,1.38.3.59.46,1.28.46,2.07s-.15,1.47-.46,2.06c-.31.59-.74,1.05-1.3,1.38-.56.33-1.23.5-2,.5ZM51.21,68.43c.35,0,.65-.1.88-.3.24-.2.41-.47.53-.82.12-.35.18-.74.18-1.19s-.06-.84-.18-1.19c-.12-.35-.3-.62-.53-.83s-.53-.3-.88-.3-.65.1-.89.3-.42.48-.54.83c-.12.35-.18.74-.18,1.19s.06.84.18,1.19c.12.35.3.62.54.82.24.2.54.3.89.3Z"/>
    <path class="cls-9" d="M60.78,66.67v-4.39h2.12v7.64h-2.03v-1.39h-.08c-.17.45-.46.81-.86,1.08-.4.27-.89.41-1.46.41-.51,0-.96-.12-1.35-.35-.39-.23-.69-.56-.91-.99-.22-.43-.33-.94-.33-1.54v-4.86h2.12v4.48c0,.45.12.81.36,1.07.24.26.56.39.96.39.25,0,.49-.06.72-.18.22-.12.4-.29.54-.52.14-.23.2-.52.2-.86Z"/>
    <path class="cls-9" d="M64.13,69.92v-7.64h2.05v1.33h.08c.14-.47.37-.83.7-1.08.33-.24.71-.37,1.13-.37.11,0,.22,0,.34.02.12.01.23.03.32.05v1.88c-.1-.03-.24-.06-.41-.08-.18-.02-.34-.04-.48-.04-.31,0-.59.07-.83.2-.24.13-.44.32-.58.56-.14.24-.21.51-.21.83v4.32h-2.12Z"/>
    <path class="cls-9" d="M72.48,70.07c-.78,0-1.45-.17-2.02-.5-.56-.33-.99-.8-1.29-1.39-.3-.59-.45-1.28-.45-2.05s.15-1.47.46-2.06c.3-.59.73-1.05,1.29-1.39s1.23-.5,2-.5c.67,0,1.25.12,1.75.36.5.24.9.58,1.19,1.02.29.44.45.95.48,1.54h-2c-.06-.38-.21-.69-.45-.92-.24-.23-.55-.35-.94-.35-.33,0-.61.09-.86.27-.24.18-.43.44-.57.77s-.2.75-.2,1.23.07.9.2,1.24c.13.34.32.6.57.78.25.18.53.27.86.27.24,0,.46-.05.65-.15.19-.1.35-.24.48-.43.13-.19.21-.42.25-.69h2c-.03.58-.19,1.1-.47,1.54-.28.44-.67.79-1.17,1.04-.5.25-1.09.37-1.76.37Z"/>
    <path class="cls-9" d="M80.27,70.07c-.79,0-1.46-.16-2.03-.48-.56-.32-1-.77-1.3-1.36-.3-.59-.46-1.29-.46-2.09s.15-1.47.46-2.07c.3-.59.74-1.06,1.29-1.39.55-.33,1.21-.5,1.96-.5.5,0,.97.08,1.41.24.44.16.82.4,1.14.72.33.32.58.73.76,1.21s.27,1.05.27,1.7v.58h-6.45v-1.31h4.45c0-.3-.07-.58-.2-.81s-.32-.42-.55-.55c-.23-.13-.5-.2-.81-.2s-.61.07-.85.22-.44.34-.58.59c-.14.25-.21.52-.21.82v1.25c0,.38.07.7.21.98s.34.49.6.64c.26.15.56.22.92.22.24,0,.45-.03.65-.1.2-.07.36-.17.5-.3.14-.13.25-.29.32-.49l1.96.13c-.1.47-.3.88-.61,1.23-.31.35-.7.62-1.18.82-.48.19-1.04.29-1.67.29Z"/>
    <path class="cls-9" d="M91.13,69.92h-3.61v-10.18h3.64c1.02,0,1.91.2,2.65.61.74.41,1.31.99,1.71,1.75s.6,1.67.6,2.72-.2,1.97-.6,2.73c-.4.76-.97,1.35-1.72,1.75-.74.41-1.63.61-2.67.61ZM89.67,68.08h1.37c.64,0,1.17-.11,1.61-.34.44-.23.76-.58.98-1.06.22-.48.33-1.1.33-1.86s-.11-1.37-.33-1.84-.55-.83-.98-1.05c-.43-.23-.97-.34-1.61-.34h-1.37v6.49Z"/>
    <path class="cls-9" d="M99.38,70.07c-.49,0-.92-.09-1.3-.26-.38-.17-.68-.42-.9-.76-.22-.34-.33-.76-.33-1.26,0-.42.08-.78.23-1.07.16-.29.37-.52.64-.7.27-.18.57-.31.92-.4.34-.09.7-.15,1.08-.19.44-.05.8-.09,1.07-.13.27-.04.47-.1.59-.19.12-.08.18-.21.18-.37v-.03c0-.31-.1-.56-.3-.73-.2-.17-.48-.26-.84-.26-.38,0-.68.08-.91.25-.23.17-.38.38-.45.63l-1.96-.16c.1-.46.29-.87.59-1.21.29-.34.67-.6,1.13-.79.46-.18,1-.28,1.61-.28.42,0,.83.05,1.22.15s.74.25,1.04.46c.3.21.54.48.72.8s.26.72.26,1.17v5.15h-2.01v-1.06h-.06c-.12.24-.29.45-.49.63-.21.18-.45.32-.74.42-.29.1-.62.15-1,.15ZM99.98,68.6c.31,0,.59-.06.83-.19.24-.12.43-.29.56-.5.14-.21.2-.45.2-.72v-.81c-.07.04-.16.08-.27.12s-.24.07-.39.09-.29.05-.43.07-.27.04-.39.06c-.25.04-.47.09-.65.17-.19.08-.33.19-.43.32-.1.13-.15.3-.15.5,0,.29.1.51.32.66.21.15.48.23.8.23Z"/>
    <path class="cls-9" d="M108.92,62.28v1.59h-4.6v-1.59h4.6ZM105.37,60.46h2.12v7.12c0,.2.03.35.09.46s.14.18.25.23c.11.04.23.06.38.06.1,0,.2,0,.3-.03.1-.02.18-.03.23-.04l.33,1.58c-.11.03-.26.07-.45.12s-.43.07-.7.08c-.51.02-.96-.05-1.34-.2-.38-.16-.68-.4-.89-.73-.21-.33-.32-.74-.31-1.24v-7.4Z"/>
    <path class="cls-9" d="M112.01,70.07c-.49,0-.92-.09-1.3-.26-.38-.17-.68-.42-.9-.76-.22-.34-.33-.76-.33-1.26,0-.42.08-.78.23-1.07.16-.29.37-.52.64-.7s.57-.31.92-.4c.34-.09.7-.15,1.08-.19.44-.05.8-.09,1.07-.13.27-.04.47-.1.59-.19s.18-.21.18-.37v-.03c0-.31-.1-.56-.29-.73-.2-.17-.48-.26-.84-.26-.38,0-.68.08-.91.25s-.38.38-.45.63l-1.96-.16c.1-.46.29-.87.59-1.21.29-.34.67-.6,1.13-.79s1-.28,1.61-.28c.42,0,.83.05,1.22.15.39.1.74.25,1.04.46.3.21.54.48.72.8s.26.72.26,1.17v5.15h-2.01v-1.06h-.06c-.12.24-.29.45-.49.63-.21.18-.45.32-.74.42-.29.1-.62.15-1,.15ZM112.62,68.6c.31,0,.59-.06.83-.19.24-.12.43-.29.56-.5.14-.21.2-.45.2-.72v-.81c-.07.04-.16.08-.27.12s-.24.07-.38.09-.29.05-.43.07-.27.04-.39.06c-.25.04-.47.09-.65.17-.19.08-.33.19-.43.32-.1.13-.15.3-.15.5,0,.29.11.51.32.66.21.15.48.23.8.23Z"/>
  </g>
  <g>
    <path class="cls-9" d="M641.16,72.43v-10.18h4.08c.75,0,1.37.11,1.87.33.5.22.88.53,1.13.92s.38.84.38,1.36c0,.4-.08.75-.24,1.05-.16.3-.38.55-.65.74s-.59.33-.95.41v.1c.39.02.75.13,1.09.33.34.2.62.49.83.85.21.36.32.79.32,1.3,0,.54-.13,1.02-.4,1.44-.27.42-.66.76-1.18,1s-1.16.37-1.92.37h-4.35ZM643.31,66.51h1.6c.29,0,.56-.05.79-.16s.41-.25.55-.44c.13-.19.2-.42.2-.69,0-.37-.13-.66-.39-.89-.26-.23-.63-.34-1.11-.34h-1.64v2.52ZM643.31,70.67h1.75c.6,0,1.04-.12,1.31-.35s.41-.54.41-.92c0-.28-.07-.53-.2-.75-.14-.22-.33-.38-.58-.51-.25-.12-.55-.18-.89-.18h-1.8v2.71Z"/>
    <path class="cls-9" d="M652.1,62.25v10.18h-2.15v-10.18h2.15Z"/>
    <path class="cls-9" d="M660.59,61.77l-3.28,12.19h-1.83l3.28-12.19h1.83Z"/>
    <path class="cls-9" d="M665.73,72.43h-2.31l3.51-10.18h2.77l3.51,10.18h-2.31l-2.55-7.86h-.08l-2.56,7.86ZM665.59,68.43h5.45v1.68h-5.45v-1.68Z"/>
    <path class="cls-9" d="M676.14,62.25v10.18h-2.15v-10.18h2.15Z"/>
    <path class="cls-9" d="M679.85,64.03v-1.77h8.36v1.77h-3.12v8.41h-2.13v-8.41h-3.12Z"/>
    <path class="cls-9" d="M691.43,72.58c-.77,0-1.44-.17-2-.5-.56-.33-1-.79-1.3-1.38s-.46-1.28-.46-2.06.15-1.48.46-2.07c.3-.59.74-1.05,1.3-1.38s1.23-.49,2-.49,1.44.16,2,.49c.56.33,1,.79,1.3,1.38.3.59.46,1.28.46,2.07s-.15,1.47-.46,2.06c-.31.59-.74,1.05-1.3,1.38-.56.33-1.23.5-2,.5ZM691.44,70.94c.35,0,.65-.1.88-.3.24-.2.41-.47.53-.82.12-.35.18-.74.18-1.19s-.06-.84-.18-1.19c-.12-.35-.3-.62-.53-.83s-.53-.3-.88-.3-.65.1-.89.3-.42.48-.54.83c-.12.35-.18.74-.18,1.19s.06.84.18,1.19c.12.35.3.62.54.82.24.2.54.3.89.3Z"/>
    <path class="cls-9" d="M699.56,72.58c-.77,0-1.44-.17-2-.5-.56-.33-1-.79-1.3-1.38s-.46-1.28-.46-2.06.15-1.48.46-2.07c.3-.59.74-1.05,1.3-1.38s1.23-.49,2-.49,1.44.16,2,.49c.56.33,1,.79,1.3,1.38.3.59.46,1.28.46,2.07s-.15,1.47-.46,2.06c-.31.59-.74,1.05-1.3,1.38-.56.33-1.23.5-2,.5ZM699.57,70.94c.35,0,.65-.1.88-.3.24-.2.41-.47.53-.82.12-.35.18-.74.18-1.19s-.06-.84-.18-1.19c-.12-.35-.3-.62-.53-.83s-.53-.3-.88-.3-.65.1-.89.3-.42.48-.54.83c-.12.35-.18.74-.18,1.19s.06.84.18,1.19c.12.35.3.62.54.82.24.2.54.3.89.3Z"/>
    <path class="cls-9" d="M706.35,62.25v10.18h-2.12v-10.18h2.12Z"/>
    <path class="cls-9" d="M713.94,66.97l-1.94.12c-.03-.17-.1-.32-.21-.45-.11-.13-.25-.24-.43-.32-.18-.08-.39-.12-.63-.12-.33,0-.6.07-.83.21s-.34.32-.34.55c0,.18.07.34.22.46.15.13.4.23.75.3l1.38.28c.74.15,1.3.4,1.66.74.36.34.55.78.55,1.33,0,.5-.15.94-.44,1.32-.29.38-.7.67-1.2.88-.51.21-1.09.32-1.76.32-1.01,0-1.82-.21-2.41-.63-.6-.42-.95-1-1.05-1.73l2.08-.11c.06.31.21.54.46.7s.55.24.93.24.67-.07.9-.22c.23-.14.34-.33.35-.56,0-.19-.08-.35-.24-.48-.16-.12-.4-.22-.74-.29l-1.32-.26c-.75-.15-1.3-.41-1.66-.78-.36-.37-.54-.84-.54-1.41,0-.49.13-.91.4-1.27s.64-.63,1.13-.82c.49-.19,1.05-.29,1.71-.29.96,0,1.72.2,2.28.61.55.41.88.96.97,1.67Z"/>
  </g>
  <path class="cls-7" d="M363.84,124.5c-9.39-12.2-11.99-26.04-10.23-40.89.73-6.15,2.37-10.62,5.25-15,.25.3.43.56.65.76,1.18,1.07,2.12,1.02,2.42-.36.44-2.05.54-4.18.71-6.28.03-.35-.2-.93-.47-1.06-1.07-.49-2.19-1.12-3.31-1.16-1.56-.05-3.43-.67-4.93,1.5,1.45.7,2.73,1.33,4.19,2.04-.14.24-.31.67-.6.99-2.33,2.61-3.99,5.62-4.97,8.94-4.7,15.91-3.06,31.14,5.3,45.53.9,1.55,2.16,2.91,3.36,4.27.48.54,1.23.84,1.86,1.25.26-.17.53-.35.79-.52Z"/>
  <path class="cls-7" d="M378.61,60.91c9.39,12.2,11.99,26.04,10.23,40.89-.73,6.15-2.37,10.62-5.25,15-.25-.3-.43-.56-.65-.76-1.18-1.07-2.12-1.02-2.42.36-.44,2.05-.54,4.18-.71,6.28-.03.35.2.93.47,1.06,1.07.49,2.19,1.12,3.31,1.16,1.56.05,3.43.67,4.93-1.5-1.45-.7-2.73-1.33-4.19-2.04.14-.24.31-.67.6-.99,2.33-2.61,3.99-5.62,4.97-8.94,4.7-15.91,3.06-31.14-5.3-45.53-.9-1.55-2.16-2.91-3.36-4.27-.48-.54-1.23-.84-1.86-1.25-.26.17-.53.35-.79.52Z"/>
  <path class="cls-5" d="M185.3,144.12h-86.33v14.44h86.33l-.22,13.83,22.72-21.41-22.48-21.27s-.01,9.6-.02,14.4Z"/>
  <path class="cls-5" d="M384.94,144.12h-35.83v14.44h35.83l-.22,13.83,22.72-21.41-22.48-21.27s-.01,9.6-.02,14.4Z"/>
  <path class="cls-5" d="M634.97,144.12h-82.33v14.44h82.33l-.22,13.83,22.72-21.41-22.48-21.27s-.01,9.6-.02,14.4Z"/>
  <g>
    <path class="cls-9" d="M132.14,147.6v6.55h-1.38v-6.55h1.38Z"/>
    <path class="cls-9" d="M134.32,151.31v2.84h-1.36v-4.91h1.3v.87h.06c.11-.29.29-.51.55-.68.26-.17.57-.25.93-.25.34,0,.64.07.89.22.25.15.45.36.59.64.14.28.21.6.21.99v3.13h-1.36v-2.88c0-.3-.07-.54-.23-.71-.16-.17-.37-.25-.64-.25-.18,0-.34.04-.48.12-.14.08-.25.19-.33.34-.08.15-.12.33-.12.54Z"/>
    <path class="cls-9" d="M140.47,156.09c-.44,0-.82-.06-1.13-.18-.31-.12-.56-.28-.75-.49-.19-.21-.31-.44-.36-.7l1.26-.17c.04.1.1.19.18.27s.19.15.33.21c.14.05.31.08.5.08.3,0,.54-.07.73-.22.19-.14.29-.38.29-.72v-.9h-.06c-.06.14-.15.26-.27.39-.12.12-.27.22-.46.3-.19.08-.41.12-.67.12-.37,0-.7-.09-1-.26-.3-.17-.54-.44-.72-.79s-.27-.8-.27-1.35.09-1.02.27-1.39.42-.65.72-.84c.3-.18.63-.28.99-.28.27,0,.5.05.69.14.19.09.33.21.45.34.11.14.2.27.26.4h.05v-.82h1.35v4.96c0,.42-.1.77-.31,1.05-.2.28-.49.49-.85.63-.36.14-.78.21-1.25.21ZM140.5,153.05c.22,0,.41-.05.56-.17.15-.11.27-.27.35-.47.08-.21.12-.45.12-.74s-.04-.54-.12-.75c-.08-.21-.2-.38-.35-.49-.15-.12-.34-.18-.56-.18s-.41.06-.57.18c-.15.12-.27.29-.35.5s-.12.46-.12.74.04.53.12.73c.08.21.2.36.35.48.15.11.34.17.56.17Z"/>
    <path class="cls-9" d="M145.9,154.24c-.51,0-.94-.1-1.3-.31-.36-.21-.64-.5-.84-.88-.2-.38-.29-.83-.29-1.34s.1-.95.29-1.33c.2-.38.47-.68.83-.89.36-.21.78-.32,1.26-.32.32,0,.63.05.91.15.28.1.53.26.73.47.21.21.37.47.49.78.12.31.18.68.18,1.09v.37h-4.15v-.84h2.86c0-.2-.04-.37-.13-.52-.09-.15-.2-.27-.35-.36-.15-.09-.32-.13-.52-.13s-.39.05-.55.14c-.16.09-.28.22-.37.38-.09.16-.14.34-.14.53v.8c0,.24.04.45.14.63.09.18.22.31.38.41.17.1.36.14.59.14.15,0,.29-.02.42-.06.13-.04.23-.11.32-.19.09-.09.16-.19.2-.31l1.26.08c-.06.3-.19.57-.39.79-.2.22-.45.4-.76.52-.31.12-.67.19-1.07.19Z"/>
    <path class="cls-9" d="M152.83,150.64l-1.25.08c-.02-.11-.07-.2-.14-.29s-.16-.16-.28-.21c-.11-.05-.25-.08-.41-.08-.21,0-.39.04-.53.13-.15.09-.22.21-.22.35,0,.12.05.22.14.3s.25.15.48.19l.89.18c.48.1.83.26,1.07.47.23.22.35.5.35.86,0,.32-.09.6-.28.85-.19.24-.45.43-.77.57-.33.14-.7.2-1.13.2-.65,0-1.17-.14-1.55-.41s-.61-.64-.68-1.11l1.34-.07c.04.2.14.35.29.45.16.1.35.15.6.15s.43-.05.58-.14.22-.21.22-.36c0-.12-.05-.23-.16-.31-.1-.08-.26-.14-.47-.18l-.85-.17c-.48-.1-.84-.26-1.07-.5s-.35-.54-.35-.9c0-.32.09-.59.26-.82.17-.23.41-.4.73-.53.31-.12.68-.18,1.1-.18.62,0,1.11.13,1.47.39.36.26.57.62.62,1.07Z"/>
    <path class="cls-9" d="M156.11,149.23v1.02h-2.96v-1.02h2.96ZM153.83,148.06h1.36v4.58c0,.13.02.22.06.29.04.07.09.12.16.15.07.03.15.04.24.04.06,0,.13,0,.19-.02s.11-.02.15-.03l.21,1.01c-.07.02-.16.05-.29.08-.12.03-.27.05-.45.05-.33.01-.62-.03-.86-.13-.25-.1-.44-.26-.57-.47-.14-.21-.2-.48-.2-.8v-4.76Z"/>
    <path class="cls-9" d="M157.38,148.6c-.2,0-.38-.07-.52-.2-.14-.13-.22-.3-.22-.49s.07-.35.22-.49c.15-.13.32-.2.52-.2s.38.07.52.2c.14.13.22.3.22.49s-.07.35-.22.49c-.14.14-.32.2-.52.2ZM156.7,154.14v-4.91h1.36v4.91h-1.36Z"/>
    <path class="cls-9" d="M161.07,154.24c-.5,0-.93-.11-1.29-.32-.36-.21-.64-.51-.84-.89-.2-.38-.29-.82-.29-1.33s.1-.95.29-1.33c.2-.38.47-.68.84-.89.36-.21.79-.32,1.29-.32s.93.11,1.29.32c.36.21.64.51.84.89.2.38.29.82.29,1.33s-.1.94-.29,1.33c-.2.38-.47.68-.84.89-.36.21-.79.32-1.29.32ZM161.08,153.18c.23,0,.41-.06.57-.19s.27-.3.34-.53c.08-.22.12-.48.12-.76s-.04-.54-.12-.76c-.08-.22-.19-.4-.34-.53s-.34-.2-.57-.2-.42.07-.57.2c-.15.13-.27.31-.35.53s-.12.48-.12.76.04.54.12.76c.08.22.19.4.35.53.15.13.35.19.57.19Z"/>
    <path class="cls-9" d="M165.44,151.31v2.84h-1.36v-4.91h1.3v.87h.06c.11-.29.29-.51.55-.68.26-.17.57-.25.93-.25.34,0,.64.07.89.22.25.15.45.36.59.64.14.28.21.6.21.99v3.13h-1.36v-2.88c0-.3-.07-.54-.23-.71-.16-.17-.37-.25-.64-.25-.18,0-.34.04-.48.12-.14.08-.25.19-.33.34-.08.15-.12.33-.12.54Z"/>
  </g>
  <g>
    <path class="cls-9" d="M581,154.37v-6.55h2.58c.5,0,.92.09,1.27.28s.62.45.8.78c.18.33.28.72.28,1.15s-.09.82-.28,1.15-.46.59-.81.78-.78.28-1.29.28h-1.65v-1.11h1.42c.27,0,.49-.05.66-.14.17-.09.3-.22.39-.39.09-.17.13-.36.13-.57s-.04-.41-.13-.57c-.09-.16-.22-.29-.39-.38s-.4-.14-.67-.14h-.93v5.41h-1.38Z"/>
    <path class="cls-9" d="M589.66,152.28v-2.82h1.36v4.91h-1.31v-.89h-.05c-.11.29-.29.52-.55.69s-.57.26-.94.26c-.33,0-.62-.07-.87-.22-.25-.15-.44-.36-.58-.64-.14-.27-.21-.6-.21-.99v-3.13h1.36v2.88c0,.29.08.52.23.69.15.17.36.25.62.25.16,0,.32-.04.46-.11.14-.08.26-.19.35-.34.09-.15.13-.33.13-.55Z"/>
    <path class="cls-9" d="M591.84,154.37v-6.55h1.36v2.46h.04c.06-.13.15-.27.26-.4.11-.14.26-.25.45-.34.18-.09.41-.14.69-.14.36,0,.69.09.99.28s.54.47.73.84c.18.37.27.84.27,1.4s-.09,1.01-.26,1.39-.41.66-.72.85c-.3.19-.64.29-1.01.29-.26,0-.49-.04-.67-.13-.18-.09-.34-.2-.45-.33s-.21-.27-.27-.4h-.06v.79h-1.34ZM593.17,151.91c0,.29.04.55.12.76.08.22.2.39.35.51.15.12.34.18.56.18s.41-.06.56-.18c.15-.12.27-.29.35-.51.08-.22.12-.47.12-.76s-.04-.53-.12-.75c-.08-.22-.2-.38-.35-.5-.15-.12-.34-.18-.57-.18s-.41.06-.56.18-.27.28-.35.5c-.08.21-.12.47-.12.76Z"/>
    <path class="cls-9" d="M598.59,147.82v6.55h-1.36v-6.55h1.36Z"/>
    <path class="cls-9" d="M600.06,148.82c-.2,0-.38-.07-.52-.2-.14-.13-.22-.3-.22-.49s.07-.35.22-.49c.15-.13.32-.2.52-.2s.38.07.52.2c.14.13.22.3.22.49s-.07.35-.22.49c-.14.14-.32.2-.52.2ZM599.38,154.37v-4.91h1.36v4.91h-1.36Z"/>
    <path class="cls-9" d="M605.62,150.86l-1.25.08c-.02-.11-.07-.2-.14-.29s-.16-.16-.28-.21c-.11-.05-.25-.08-.41-.08-.21,0-.39.04-.53.13-.14.09-.22.21-.22.35,0,.12.05.22.14.3s.25.15.48.19l.89.18c.48.1.83.26,1.07.47.23.22.35.5.35.86,0,.32-.09.6-.28.85-.19.24-.45.43-.77.57-.33.14-.7.2-1.13.2-.65,0-1.17-.14-1.55-.41s-.61-.64-.68-1.11l1.34-.07c.04.2.14.35.29.45.16.1.36.15.6.15s.43-.05.58-.14c.15-.09.22-.21.22-.36,0-.12-.05-.23-.16-.31-.1-.08-.26-.14-.47-.18l-.85-.17c-.48-.1-.83-.26-1.07-.5s-.35-.54-.35-.9c0-.32.09-.59.26-.82.17-.23.41-.4.73-.53.31-.12.68-.18,1.1-.18.62,0,1.11.13,1.46.39.36.26.57.62.62,1.07Z"/>
    <path class="cls-9" d="M607.65,151.53v2.84h-1.36v-6.55h1.32v2.5h.06c.11-.29.29-.52.54-.68s.56-.25.93-.25c.34,0,.64.07.89.22s.45.36.59.64c.14.28.21.61.21.99v3.13h-1.36v-2.88c0-.3-.07-.54-.23-.71-.15-.17-.37-.25-.65-.25-.19,0-.35.04-.49.12-.14.08-.25.19-.33.34s-.12.33-.12.54Z"/>
    <path class="cls-9" d="M612.3,148.82c-.2,0-.38-.07-.52-.2-.14-.13-.22-.3-.22-.49s.07-.35.22-.49c.15-.13.32-.2.52-.2s.38.07.52.2c.14.13.22.3.22.49s-.07.35-.22.49c-.14.14-.32.2-.52.2ZM611.61,154.37v-4.91h1.36v4.91h-1.36Z"/>
    <path class="cls-9" d="M615.13,151.53v2.84h-1.36v-4.91h1.3v.87h.06c.11-.29.29-.51.55-.68.26-.17.57-.25.93-.25.34,0,.64.07.89.22.25.15.45.36.59.64.14.28.21.6.21.99v3.13h-1.36v-2.88c0-.3-.08-.54-.23-.71-.16-.17-.37-.25-.64-.25-.18,0-.34.04-.48.12-.14.08-.25.19-.33.34-.08.15-.12.33-.12.54Z"/>
    <path class="cls-9" d="M621.27,156.31c-.44,0-.82-.06-1.13-.18-.31-.12-.56-.28-.75-.49-.19-.21-.31-.44-.36-.7l1.26-.17c.04.1.1.19.18.27s.19.15.33.21c.14.05.31.08.5.08.3,0,.54-.07.73-.22.19-.14.29-.38.29-.72v-.9h-.06c-.06.14-.15.26-.27.39-.12.12-.27.22-.46.3-.19.08-.41.12-.67.12-.37,0-.7-.09-1-.26-.3-.17-.54-.44-.72-.79s-.27-.8-.27-1.35.09-1.02.27-1.39c.18-.37.42-.65.72-.84.3-.18.63-.28.99-.28.28,0,.5.05.69.14s.33.21.45.34c.11.14.2.27.26.4h.05v-.82h1.35v4.96c0,.42-.1.77-.31,1.05-.2.28-.49.49-.85.63-.36.14-.78.21-1.25.21ZM621.3,153.27c.22,0,.41-.05.56-.17.15-.11.27-.27.35-.47.08-.21.12-.45.12-.74s-.04-.54-.12-.75-.2-.38-.35-.49-.34-.18-.56-.18-.41.06-.57.18-.27.29-.35.5c-.08.21-.12.46-.12.74s.04.53.12.73c.08.21.2.36.35.48.15.11.34.17.56.17Z"/>
  </g>
</svg>