<?xml version="1.0" encoding="UTF-8"?>
<svg id="Layer_1" data-name="Layer 1" xmlns="http://www.w3.org/2000/svg" version="1.1" viewBox="0 0 935.3 219.9">
  <defs>
    <style>
      .cls-1 {
        font-family: Poppins-Bold, Poppins;
        font-size: 48px;
        font-weight: 700;
      }

      .cls-1, .cls-2 {
        fill: #fff;
      }

      .cls-3 {
        fill: #ff3939;
      }

      .cls-3, .cls-2 {
        stroke-width: 0px;
      }
    </style>
  </defs>
  <g>
    <path class="cls-2" d="M287.8,144.2c9.7-9.5,14.6-21.3,14.6-35.1v-.4c0-14-5-26-14.8-35.5s-21.9-14.3-36-14.3h-35.6v99.6h35.6c14.3,0,26.5-4.8,36.2-14.3h0ZM234.1,141.5v-65.8h17.5c9.6,0,17.6,3.1,23.8,9.2,6.1,6.1,9.2,14.1,9.2,23.7s-3.1,17.3-9.2,23.5-14.1,9.4-23.9,9.4h-17.5.1Z"/>
    <path class="cls-2" d="M389.2,158.3v-75.6h-17.5v8.7c-5.9-6.6-13.6-10-23.1-10s-19.4,3.8-26.7,11.4h0c-7.3,7.6-11,16.9-11,27.6s3.7,19.8,11,27.4,16.3,11.5,26.6,11.5,17.2-3.3,23.1-9.8v8.7h17.6ZM372.8,120.5c0,6.2-2.3,11.7-6.7,16.2-4.5,4.5-9.9,6.8-16.1,6.8s-11.7-2.3-16.1-6.7-6.6-9.9-6.6-16.2,2.2-11.8,6.6-16.3,9.8-6.8,16.1-6.8,11.6,2.3,16.1,6.9,6.7,10,6.7,16.2h0Z"/>
    <path class="cls-2" d="M413.8,133.6c0,10.8,3,17.9,8.9,21.2,5.8,3.3,11.5,4.9,17.1,4.9s9-.7,14-2.1h.5v-17.2l-.9.3c-4.7,1.5-8.7,2.2-12,2.2s-4.4-.6-6.9-1.6c-2.4-1-3.6-3.6-3.6-7.9v-35.4h22.8v-15.4h-22.8v-22.6l-17.2,5v17.6h-14v15.4h14v35.6h.1Z"/>
    <path class="cls-2" d="M498.1,159.4c9.5,0,17.2-3.3,23.1-9.8v8.7h17.5v-75.6h-17.5v8.7c-5.9-6.6-13.6-10-23.1-10s-19.4,3.8-26.7,11.4h0c-7.3,7.6-11,16.9-11,27.6s3.7,19.8,11,27.4,16.3,11.5,26.6,11.5h.1ZM476.8,120.5c0-6.3,2.2-11.8,6.6-16.3s9.8-6.8,16.1-6.8,11.6,2.3,16.1,6.9c4.5,4.6,6.7,10,6.7,16.2s-2.3,11.7-6.7,16.2c-4.5,4.5-9.9,6.8-16.1,6.8s-11.7-2.3-16.1-6.7-6.6-9.9-6.6-16.2h0Z"/>
    <polygon class="cls-2" points="556.2 159.4 574.1 159.4 574.1 117.9 622.7 117.9 622.7 101.5 574.1 101.5 574.1 76.9 628.3 76.9 628.3 60.1 556.2 60.1 556.2 159.4"/>
    <path class="cls-2" d="M670,82.6c-10.7,0-19.9,3.8-27.5,11.4s-11.4,16.8-11.4,27.5,3.8,20,11.4,27.6c7.6,7.6,16.8,11.5,27.5,11.5s19.8-3.9,27.4-11.5c7.6-7.6,11.4-16.9,11.4-27.6s-3.8-19.8-11.3-27.4-16.8-11.5-27.4-11.5h-.1ZM692.2,121.5c0,6.2-2.2,11.7-6.5,16.2s-9.6,6.8-15.7,6.8-11.5-2.3-15.9-6.8c-4.3-4.5-6.5-9.9-6.5-16.2s2.2-11.6,6.5-16.1,9.7-6.7,15.9-6.7,11.5,2.3,15.8,6.7c4.3,4.5,6.5,9.9,6.5,16.1h0Z"/>
    <path class="cls-2" d="M757.2,83c-4.4,0-8.7,1-12.8,3.1-3.5,1.7-6.3,4.4-8.6,8v-10.2h-17.5v75.6h17.5v-38.3c0-7.6,2.2-12.9,6.7-15.8,4.5-3,8.9-4.5,12.9-4.5s5.2.5,8,1.4l.9.3v-18.8h-.6c-2.3-.5-4.5-.7-6.5-.7h0Z"/>
    <path class="cls-2" d="M829,92.5c-5.9-6.5-13.6-9.8-23.1-9.9h-.8c-10.2,0-19,3.6-26.1,10.8-7.1,7.2-10.7,16.3-10.7,27.2s3.6,19.8,10.7,27c7.1,7.2,16.2,10.9,27,10.9s17.3-3.1,23.1-9.2v4.2c0,7.3-2,12.9-5.7,16.4s-8.5,5.4-14.3,5.4-8.3-1-12-3.1c-3.7-2-6.3-5.2-7.9-9.5l-.2-.5h-17.5l.2.9c2.2,9.3,6.8,16.4,13.9,21.3,7,4.8,14.9,7.3,23.6,7.3s19.4-3.5,26.6-10.3c7.2-6.8,10.8-16.3,10.8-28.2v-69.3h-17.5v8.6h0ZM823.4,104.9c4.4,4.3,6.7,9.6,6.7,15.7s-2.3,11.4-6.7,15.7c-4.5,4.3-9.9,6.4-16.1,6.4s-11.6-2.1-16-6.4c-4.4-4.2-6.6-9.5-6.6-15.7s2.2-11.5,6.6-15.7c4.4-4.2,9.8-6.4,16.1-6.4s11.8,2.2,16.2,6.4h-.2Z"/>
    <path class="cls-2" d="M934.5,114.8c-1.6-9.2-6-16.9-13-23s-15.4-9.2-24.9-9.2-19.8,3.8-27.4,11.4c-7.6,7.6-11.4,16.9-11.4,27.7s3.8,19.9,11.2,27.5,16.7,11.4,27.6,11.4,14.2-1.8,20.8-5.5c6.7-3.6,11.6-8.6,14.6-14.6l.4-.8-15.5-4.1-.3.3c-5,6-11.7,9-20,9s-10.2-1.6-14.2-4.8c-3.8-3-6.2-7-7.2-11.9h59.3v-.5c.6-2,.8-4,.8-6s-.3-4.6-.8-6.8h0ZM882.3,103.2c3.9-3.3,8.6-4.9,14.1-4.9s10.2,1.7,14,4.9c3.6,3.1,5.9,6.9,6.9,11.3h-42.2c1.1-4.4,3.5-8.2,7.1-11.3h.1Z"/>
  </g>
  <path class="cls-3" d="M133.8,118.1c-.3,1.5-.7,2.4-1.1,2.4h-4.2c-.8,1.5-1.7,4.3-1.7,9.9h3.5v12.8c0,1.2-7.7,2.2-17.2,2.2s-17.2-1-17.2-2.2v-12.8h3.5c0-5.6-.8-8.4-1.7-9.9h-4.2c-.9,0-1.7-4.7-1.7-10.4s.8-10.4,1.7-10.4h3.6c1-1.2,2.2-3.9,2.2-10.7h-3.4v-12.8c0-1.2,7.7-2.2,17.2-2.2s17.2,1,17.2,2.2v12.8h-3.5c0,6.7,1.2,9.5,2.2,10.7h3.6c.4,0,.7.8,1,2h55.4C146.4,87.5,115.7,47.2,115.7-.2h-5.1c0,59.4-48.1,107.5-107.5,107.5v4.9c59.4,0,107.5,48.1,107.5,107.5h5.1c0-47,30.2-87,72.3-101.6h-54.2Z"/>
  <text class="cls-1" transform="translate(214.7 206)"><tspan x="0" y="0">CORE</tspan></text>
</svg>